<?xml version="1.0" standalone="no"?>
<!DOCTYPE svg PUBLIC "-//W3C//DTD SVG 1.1//EN" "http://www.w3.org/Graphics/SVG/1.1/DTD/svg11.dtd" >
<svg xmlns="http://www.w3.org/2000/svg">
<metadata>Generated by IcoMoon</metadata>
<defs>
<font id="fonticon" horiz-adv-x="1024">
<font-face units-per-em="1024" ascent="960" descent="-64" />
<missing-glyph horiz-adv-x="1024" />
<glyph unicode="&#x20;" horiz-adv-x="512" d="" />
<glyph unicode="&#xe600;" glyph-name="mapicon" d="M1024 950.857v-910.623l-337.039-105.647v-7.73l-6.7 3.607-6.7-3.607v7.73l-330.855 148.421-342.708-156.151v910.623l337.039 105.647v7.73l6.7-3.607 6.184 3.607v-7.73l330.855-102.039 343.223 109.77zM713.244 90.223v-47.928l225.723 67.511v693.661l-225.723-67.511v-645.733zM264.374 789.037l-178.826-67.511v-647.279l179.342 81.941v632.85zM601.929 43.326v692.63l-225.723 67.511v-615.328l225.723-81.941v-62.873z" />
<glyph unicode="&#xe601;" glyph-name="more-info" d="M170.667 780.19c0-46.933 38.4-85.333 85.333-85.333h390.4l-535.467-537.6c-34.133-34.133-34.133-87.467 0-121.6s87.467-34.133 121.6 0l535.467 537.6v-390.4c0-46.933 38.4-85.333 85.333-85.333s85.333 38.4 85.333 85.333v597.333c0 46.933-38.4 85.333-85.333 85.333h-597.333c-46.933 0-85.333-38.4-85.333-85.333z" />
<glyph unicode="&#xe602;" glyph-name="move" d="M959.778 443.823c0-251.015-203.488-454.502-454.502-454.502s-454.502 203.488-454.502 454.502c0 251.015 203.488 454.502 454.502 454.502s454.502-203.488 454.502-454.502zM589.329 337.208h-191.505c0.393-3.226 0.631-6.519 0.631-9.865 0-8.602-1.382-16.879-3.908-24.627h198.042c-2.509 7.748-3.891 16.026-3.891 24.627 0.017 3.345 0.239 6.622 0.631 9.865zM788.821 363.149c0 0 0 68.369 0 88.064 0 19.712-23.654 40.107-34.816 51.268-11.179 11.162-74.94 70.963-86.75 80.828-11.827 9.865-15.787 24.303-54.545 24.303-38.775 0-270.763 0-304.947 0-34.167 0-86.084 3.942-86.084-63.061 0-59.068 0-167.543 0-192.563h20.975c10.377 32.034 40.448 55.194 75.947 55.194 32.478 0 60.416-19.422 72.892-47.258h204.169c12.459 27.836 40.397 47.258 72.892 47.258 44.1 0 79.855-35.755 79.855-79.855 0-7.868-1.143-15.479-3.277-22.665h22.682l16.418 9.199c0 0 14.473 5.257 14.473 22.357-0.017 17.084-2.645 26.931-9.882 26.931zM694.033 502.499c-3.772 0-88.559 0-99.738 0s-15.787 0-15.787 4.608 0 42.718 0 53.879c0 11.179 0 15.787 5.274 15.787 5.257 0 29.559 0 29.559 0s3.601-0.119 10.428-0.119 9.438 0.239 12.732-2.833 53.026-50.21 57.515-54.682c4.489-4.489 3.533-7.782 3.533-10.377 0.017-2.611 0.256-6.263-3.516-6.263zM768.119 389.449c-4.898 0-8.875 10.359-8.875 23.159 0 12.783 3.959 23.159 8.875 23.159s8.892-10.377 8.892-23.159c-0.017-12.783-3.994-23.159-8.892-23.159zM262.417 326.354c0-31.027 25.156-56.183 56.183-56.183s56.183 25.156 56.183 56.183-25.156 56.201-56.183 56.201-56.183-25.156-56.183-56.201zM290.031 326.354c0 15.787 12.8 28.604 28.587 28.604s28.587-12.817 28.587-28.604-12.8-28.587-28.587-28.587-28.587 12.8-28.587 28.587zM612.369 326.354c0-31.027 25.173-56.183 56.183-56.183 31.027 0 56.201 25.156 56.201 56.183s-25.173 56.201-56.201 56.201c-31.027 0-56.183-25.156-56.183-56.201zM639.966 326.354c0 15.787 12.8 28.604 28.587 28.604 15.804 0 28.604-12.817 28.604-28.604s-12.8-28.587-28.604-28.587c-15.787 0-28.587 12.8-28.587 28.587z" />
<glyph unicode="&#xe603;" glyph-name="my_account" d="M960.051 441.912c0-251.015-203.488-454.502-454.502-454.502s-454.502 203.488-454.502 454.502c0 251.015 203.488 454.502 454.502 454.502s454.502-203.488 454.502-454.502zM596.975 295.275c-2.731-0.922-8.175 0.905-8.175 0.905v60.058c0 0 13.653 18.176 18.193 33.655 2.065 7.066 6.81 27.494 11.349 53.231 0.939-0.802 1.946-1.331 3.055-1.502 8.431-1.399 18.466 16.947 22.409 40.96 3.959 24.013 0.358 44.595-8.090 45.995-2.406 0.393-4.932-0.853-7.424-3.328 0.324 6.263 0.495 12.442 0.495 18.381 0 59.119 1.809 106.428-20.002 124.621-21.845 18.193-45.483 41.847-49.135 40.021-3.635-1.826-3.635-19.115-2.714-21.828 0.905-2.731-16.384 11.81-20.019 20.924s-18.193 14.558-22.75 15.462c-4.557 0.922-10.001 6.366-10.001 6.366s-16.367 8.192-19.098 7.287c-2.731-0.905-7.287 9.097-14.558 4.54-7.27-4.54-5.461-15.462-10.001-22.733-4.54-7.287-12.732-12.749-18.193-14.575-5.461-1.809-7.27-7.27-12.732-14.558-5.461-7.27-9.097-10.923-13.653-11.827-4.54-0.905-3.635 1.809-8.175-2.731-4.557-4.557-18.193-24.559-18.193-36.386s-13.636-16.384-11.827-62.771c0.597-15.172 1.98-32.768 3.738-50.807-2.662 2.884-5.41 4.335-7.987 3.908-8.431-1.399-12.049-21.982-8.090-45.995s13.995-42.359 22.426-40.96c1.314 0.222 2.492 0.939 3.55 2.014 0.973-6.741 1.894-12.954 2.748-18.261 5.461-34.56 17.289-57.31 30.925-70.042 0 0-4.557-52.77-5.461-57.293-0.905-4.557-6.366-1.826-11.827-4.557s-115.524-67.311-115.524-67.311 199.219-190.123 426.633 0c0 0-119.159 70.042-121.89 69.137z" />
<glyph unicode="&#xe604;" glyph-name="referral_rewards" d="M957.935 437.816c0-251.015-203.488-454.502-454.502-454.502s-454.502 203.488-454.502 454.502c0 251.015 203.488 454.502 454.502 454.502s454.502-203.488 454.502-454.502zM707.157 407.42c-1.775 13.534-10.291 24.371-21.555 29.815 2.953 3.891 5.342 8.175 6.417 13.244 3.874 18.364-9.591 31.471-21.521 36.642-12.339 5.359-30.345 9.318-41.574 9.626-15.138 0.393-35.362-6.997-46.148-11.298-25.242 4.71-40.926 19.917-39.424 40.977 3.755 46.029 17.937 58.027 10.752 95.334-4.471 23.381-18.637 51.746-39.578 54.46-17.391 2.236-22.647-16.725-23.74-39.595-1.997-41.37-17.050-68.523-25.941-94.669-1.348-1.519-2.697-2.97-4.164-4.813-43.52-54.187-41.233-82.978-41.233-117.743 0-35.567 0-117.641 0-117.641 4.13-30.874 170.991-57.89 193.707-54.75 20.787 2.833 68.591 13.722 74.786 43.776 1.809 8.653 0.973 14.848-2.219 18.842 12.339 7.851 19.712 22.443 17.613 38.007-1.212 9.301-5.717 17.254-11.998 23.108 11.196 8.141 17.783 21.931 15.821 36.676zM382.857 481.302h-78.933c-5.905 0-12.134-4.847-13.619-10.854-16.299-67.328-16.145-137.694 0.444-205.039 1.536-5.973 7.373-9.933 12.954-8.875 25.242 4.915 51.627 9.899 78.933 14.916 5.99 1.109 11.025 6.98 11.059 13.056v185.788c-0.051 6.076-4.932 11.008-10.837 11.008z" />
<glyph unicode="&#xe605;" glyph-name="shaw_friends" d="M956.877 448.602c0-251.015-203.488-454.502-454.502-454.502s-454.502 203.488-454.502 454.502c0 251.015 203.488 454.502 454.502 454.502s454.502-203.488 454.502-454.502zM671.59 596.195c-42.394 35.959-126.805 30.839-169.216-30.908-42.428 61.73-126.857 66.867-169.199 30.908-153.344-130.031 159.829-354.577 169.199-359.782 9.387 5.205 322.509 229.751 169.216 359.782z" />
<glyph unicode="&#xe606;" glyph-name="support_community" d="M957.662 442.083c0-251.015-203.488-454.502-454.502-454.502s-454.502 203.488-454.502 454.502c0 251.015 203.488 454.502 454.502 454.502s454.502-203.488 454.502-454.502zM383.915 464.167c0 39.373-32.666 71.287-72.943 71.287-40.294 0-72.96-31.932-72.96-71.287 0-28.638 17.391-53.197 42.308-64.529-28.16-16.759-47.718-54.374-58.487-101.888h136.789c2.082 29.645 7.834 57.515 16.725 82.313-8.943 9.472-18.842 16.862-29.457 21.845 22.562 12.151 38.025 35.311 38.025 62.259zM510.583 602.441c-54.272 0-98.406-43.162-98.406-96.222 0-28.211 12.425-54.17 33.536-72.124-33.126-27.785-55.893-76.971-61.235-134.912l-1.621-17.459h249.139l-1.587 17.459c-5.137 55.671-26.709 103.799-58.078 132.13 22.869 17.971 36.676 45.312 36.676 74.906 0.017 53.060-44.134 96.222-98.423 96.222v0zM735.625 397.112c28.416 9.762 48.862 35.925 48.862 67.055 0 39.373-32.631 71.287-72.909 71.287s-72.909-31.932-72.909-71.287c0-25.378 13.653-47.479 33.997-60.16-11.691-4.574-22.63-12.015-32.444-21.914 9.301-25.293 15.326-53.862 17.459-84.326h126.822c-10.274 45.244-24.969 81.51-48.879 99.345z" />
<glyph unicode="&#xe607;" glyph-name="support_community_2" d="M383.915 464.167c0 39.373-32.666 71.287-72.943 71.287-40.294 0-72.96-31.932-72.96-71.287 0-28.638 17.391-53.197 42.308-64.529-28.16-16.742-47.718-54.391-58.487-101.888h136.789c2.082 29.628 7.834 57.498 16.725 82.295-8.943 9.472-18.842 16.862-29.457 21.845 22.562 12.169 38.025 35.328 38.025 62.276zM510.583 602.441c-54.272 0-98.406-43.162-98.406-96.222 0-28.211 12.425-54.17 33.536-72.124-33.126-27.785-55.893-76.971-61.235-134.912l-1.621-17.459h249.139l-1.604 17.459c-5.137 55.671-26.692 103.799-58.061 132.13 22.869 17.971 36.659 45.312 36.659 74.906 0.051 53.060-44.117 96.222-98.406 96.222v0zM735.642 397.129c28.399 9.745 48.845 35.908 48.845 67.038 0 39.373-32.614 71.287-72.909 71.287-40.26 0-72.892-31.932-72.892-71.287 0-25.378 13.67-47.479 33.997-60.16-11.708-4.591-22.63-12.015-32.427-21.914 9.301-25.293 15.309-53.862 17.442-84.326h126.822c-10.291 45.244-24.986 81.51-48.879 99.362z" />
<glyph unicode="&#xe608;" glyph-name="email-support" d="M957.935 437.816c0-251.015-203.488-454.502-454.502-454.502s-454.502 203.488-454.502 454.502c0 251.015 203.488 454.502 454.502 454.502s454.502-203.488 454.502-454.502zM734.225 486.302c-78.029 0-141.278-63.147-141.278-141.039s63.249-141.039 141.278-141.039 141.278 63.147 141.278 141.039c0 77.892-63.249 141.039-141.278 141.039zM734.225 235.986c-60.45 0-109.449 48.93-109.449 109.278s48.998 109.278 109.449 109.278 109.449-48.93 109.449-109.278c0-60.365-48.998-109.278-109.449-109.278zM232.585 342.516c-4.557 0-8.892 0.666-12.937 1.877l191.181 134.69 46.865-27.597-0.034-1.229 1.041 0.631 1.058-0.631 0.034 1.28 47.36 28.467 87.791-55.774c4.796 8.926 10.633 17.101 17.34 24.337l-77.141 48.265 180.446 108.425c0.649-2.748 1.024-5.615 1.024-8.567v-91.887c15.002 0.939 21.163 0.529 46.729-1.553v136.431c0 20.651-16.742 37.376-37.376 37.376h-540.092c-20.651 0-37.376-16.742-37.376-37.376v-310.238c0-20.651 16.742-37.376 37.376-37.376h394.342c-6.195 15.241-7.168 32.358-7.424 50.466h-340.207zM232.585 634.066h446.686c2.526 0 4.983-0.256 7.356-0.734l-228.011-139.725-0.017-0.597-233.045 140.373c2.287 0.444 4.625 0.683 7.031 0.683zM195.209 376.154v220.535c0 3.004 0.393 5.922 1.058 8.721l186.3-109.67-185.532-130.714c-1.161 3.379-1.826 7.1-1.826 11.127zM748.732 320.192c0 3.516 0.393 5.854 1.57 8.192 1.946 3.703 5.854 7.219 10.94 11.315 16.009 13.466 21.282 23.433 21.47 35.721 0.188 21.675-12.493 35.328-44.698 35.328-15.821 0-28.689-4.693-36.318-8.004-2.935-1.365-4.881-3.123-4.881-6.827v-14.831c0-2.731 1.758-5.461 6.246-4.301 6.059 1.57 17.186 8.192 32.802 8.192 12.1 0 16.401-4.489 16.401-11.52 0-6.434-2.935-10.94-11.913-17.562-16.589-12.1-19.712-21.862-19.712-35.721 0-3.516 1.758-5.461 5.461-5.461h17.186c3.499 0.017 5.444 1.775 5.444 5.478zM744.636 272.952c3.516 0 5.461 1.758 5.461 5.461v18.551c0 3.516-1.758 5.461-5.461 5.461h-19.319c-3.703 0-5.461-1.946-5.461-5.461v-18.534c0-3.516 1.758-5.461 5.461-5.461h19.319z" />
<glyph unicode="&#xe609;" glyph-name="internet-support" d="M957.935 437.816c0-251.015-203.488-454.502-454.502-454.502s-454.502 203.488-454.502 454.502c0 251.015 203.488 454.502 454.502 454.502s454.502-203.488 454.502-454.502zM735.147 484.613c-78.353 0-141.858-63.403-141.858-141.636 0-78.217 63.522-141.636 141.858-141.636s141.858 63.403 141.858 141.636c0 78.234-63.505 141.636-141.858 141.636zM735.147 233.255c-60.706 0-109.909 49.118-109.909 109.722s49.203 109.722 109.909 109.722 109.909-49.118 109.909-109.722c0-60.587-49.203-109.722-109.909-109.722zM256.461 399.484v219.836h437.897v-120.832c12.8 3.277 26.214 5.018 40.038 5.018 4.966 0 9.865-0.256 14.694-0.7v116.514c0 30.362-24.508 54.955-54.733 54.955h-437.897c-30.208 0-54.733-24.593-54.733-54.955v-233.574h-54.733v-68.693c0-15.172 12.237-27.477 27.375-27.477h407.433c-5.666 16.486-8.789 34.15-8.789 52.548 0 20.207 3.755 39.543 10.53 57.378h-327.083zM530.142 330.774h-109.466c-7.561 0-13.687 6.144-13.687 13.739s6.127 13.739 13.687 13.739h109.466c7.561 0 13.687-6.144 13.687-13.739s-6.127-13.739-13.687-13.739zM505.566 455.736c0.87-1.041 1.741-1.348 2.56-1.348h11.861c2.372 0 3.209 1.28 3.089 2.355-0.222 2.287-3.396 6.417-3.396 6.417-9.574 12.186-24.593 22.374-44.271 22.409-19.678-0.017-34.714-10.223-44.271-22.409 0 0-3.174-4.13-3.396-6.417-0.119-1.075 0.717-2.355 3.106-2.355h11.844c0.836 0 1.69 0.324 2.56 1.348l0.768 0.836c7.049 8.38 17.596 13.687 29.389 13.722 11.793-0.034 22.323-5.342 29.389-13.722l0.768-0.836zM543.573 480.261l0.29-0.307c0.58-0.785 1.143-1.604 1.69-2.423 0.393-0.614 0.631-0.956 0.631-0.956 0.768-1.058 1.758-1.604 3.362-1.604h12.646c2.048 0 3.174 0.99 3.174 2.816 0 1.092-0.597 2.338-1.058 3.209-2.065 3.925-4.523 7.663-7.287 11.11l-0.188 0.205c-18.944 24.235-48.418 39.834-81.425 39.834h-0.051c-33.024 0-62.464-15.599-81.408-39.834l-0.205-0.205c-2.765-3.447-5.222-7.185-7.287-11.11-0.461-0.87-1.058-2.099-1.058-3.209 0-1.826 1.143-2.816 3.174-2.816h12.646c1.638 0 2.577 0.529 3.345 1.604 0 0 0.239 0.324 0.649 0.956 0.546 0.819 1.092 1.638 1.69 2.423l0.273 0.307c15.684 20.617 40.363 33.946 68.147 33.946h0.051c27.836 0.017 52.531-13.329 68.198-33.946zM462.097 431.126c0-7.373 5.973-13.346 13.312-13.346 7.356 0 13.312 5.99 13.312 13.346 0 7.373-5.939 13.363-13.312 13.363-7.339 0-13.312-5.99-13.312-13.363zM612.25 509.155c0 1.655-0.905 3.55-1.587 4.864-3.157 5.99-6.878 11.657-11.076 16.913l-0.273 0.324c-28.843 36.864-73.643 60.587-123.87 60.587h-0.051c-50.21 0-95.010-23.723-123.87-60.587l-0.273-0.324c-4.215-5.257-7.919-10.923-11.076-16.913-0.683-1.314-1.587-3.209-1.587-4.864 0-2.782 1.707-4.284 4.83-4.284h19.234c2.475 0 3.908 0.836 5.086 2.441 0 0 0.375 0.478 0.99 1.434 0.836 1.246 1.69 2.475 2.577 3.669l0.444 0.478c23.808 31.386 61.406 51.644 103.646 51.644h0.051c42.24 0 79.821-20.258 103.646-51.644l0.444-0.478c0.887-1.195 1.758-2.423 2.577-3.669 0.614-0.956 0.973-1.434 0.973-1.434 1.195-1.604 2.628-2.441 5.086-2.441h19.251c3.123 0 4.83 1.502 4.83 4.284zM744.499 320.414c0 3.652 0.41 6.093 1.621 8.533 2.031 3.857 6.093 7.526 11.383 11.793 16.674 14.029 22.17 24.405 22.357 37.205 0.205 22.562-13.005 36.796-46.558 36.796-16.469 0-29.884-4.881-37.82-8.329-3.055-1.417-5.086-3.26-5.086-7.117v-15.445c0-2.85 1.826-5.7 6.502-4.471 6.298 1.621 17.886 8.533 34.15 8.533 12.612 0 17.084-4.676 17.084-11.998 0-6.707-3.055-11.383-12.407-18.295-17.289-12.612-20.531-22.767-20.531-37.205 0-3.652 1.826-5.7 5.7-5.7h17.886c3.686 0.017 5.717 1.843 5.717 5.7zM740.233 271.211c3.652 0 5.7 1.826 5.7 5.7v19.319c0 3.652-1.826 5.7-5.7 5.7h-20.122c-3.857 0-5.7-2.031-5.7-5.7v-19.319c0-3.652 1.826-5.7 5.7-5.7h20.122z" />
<glyph unicode="&#xe60a;" glyph-name="tv-support" d="M957.935 437.816c0-251.015-203.488-454.502-454.502-454.502s-454.502 203.488-454.502 454.502c0 251.015 203.488 454.502 454.502 454.502s454.502-203.488 454.502-454.502zM751.292 484.527c-78.029 0-141.278-63.147-141.278-141.056 0-77.892 63.249-141.039 141.278-141.039s141.278 63.147 141.278 141.039c0 77.909-63.249 141.056-141.278 141.056zM751.292 234.211c-60.45 0-109.449 48.93-109.449 109.278s48.998 109.278 109.449 109.278 109.449-48.93 109.449-109.278c0-60.365-48.998-109.278-109.449-109.278zM765.798 318.435c0 3.516 0.393 5.854 1.57 8.192 1.946 3.703 5.854 7.219 10.94 11.315 16.009 13.466 21.282 23.433 21.47 35.721 0.188 21.675-12.493 35.328-44.698 35.328-15.821 0-28.689-4.693-36.318-8.004-2.935-1.365-4.881-3.123-4.881-6.827v-14.831c0-2.731 1.758-5.461 6.246-4.301 6.059 1.57 17.186 8.192 32.802 8.192 12.1 0 16.401-4.489 16.401-11.52 0-6.434-2.935-10.94-11.913-17.562-16.589-12.1-19.712-21.862-19.712-35.721 0-3.516 1.758-5.461 5.461-5.461h17.186c3.499 0 5.444 1.758 5.444 5.478zM761.702 271.177c3.516 0 5.461 1.758 5.461 5.461v18.551c0 3.516-1.758 5.461-5.461 5.461h-19.319c-3.703 0-5.461-1.946-5.461-5.461v-18.551c0-3.516 1.758-5.461 5.461-5.461h19.319zM696.269 675.282h-480.529c-26.522 0-48.043-21.897-48.043-48.384v-239.497c0-26.436 21.521-47.428 48.043-47.428h168.209v-23.945h-72.090c-6.656 0-12.066-5.376-12.066-11.947 0-6.622 5.393-11.998 12.066-11.998h286.191c-2.56 7.748-4.54 15.735-5.905 23.945h-64.034v23.945h61.918c-0.017 0.785-0.051 1.553-0.051 2.321 0 15.838 2.338 31.13 6.622 45.568h-380.86v239.514h480.546v-134.332c15.104 5.376 31.249 8.533 48.060 9.097v124.757c0 26.487-21.572 48.384-48.077 48.384z" />
<glyph unicode="&#xe60b;" glyph-name="tab-apple" d="M512 950.857c-282.624 0-512-229.376-512-512s229.376-512 512-512 512 229.376 512 512-229.376 512-512 512zM376.832 735.817c0 6.144 6.144 12.288 14.336 14.336 0 0 53.248 4.096 90.112-32.768s32.768-90.112 32.768-90.112c0-6.144-6.144-12.288-14.336-14.336 0 0-53.248-4.096-90.112 32.768s-32.768 90.112-32.768 90.112zM512 139.849c-141.312-61.44-245.76 143.36-245.76 280.576 0 129.024 112.64 204.8 229.376 151.552 38.912 98.304 69.632 145.408 69.632 145.408 4.096 6.144 12.288 8.192 18.432 4.096l43.008-20.48c6.144-2.048 6.144-8.192 2.048-12.288 0 0-36.864-26.624-55.296-49.152-22.528-24.576-38.912-51.2-49.152-69.632 131.072 57.344 231.424-18.432 231.424-149.504 2.048-137.216-94.208-346.112-243.712-280.576z" />
<glyph unicode="&#xe60c;" glyph-name="tab-education" d="M512 950.857c-282.624 0-512-229.376-512-512s229.376-512 512-512 512 229.376 512 512-229.376 512-512 512zM221.184 287.305l-18.432 59.392 18.432 198.656 16.384-198.656-16.384-59.392zM501.76 221.769c-49.152 0-196.608 108.544-196.608 143.36 0 4.096 2.048 8.192 4.096 12.288 0 0 0 0 0 0l16.384 98.304 190.464-116.736 194.56 116.736 16.384-92.16c2.048-10.24 4.096-14.336 4.096-18.432-2.048-34.816-180.224-143.36-229.376-143.36zM518.144 379.465l-299.008 180.224 299.008 96.256 299.008-94.208-299.008-182.272z" />
<glyph unicode="&#xe60d;" glyph-name="tab-internet" d="M378.88 336.457h110.592v81.92h-120.832c0-28.672 4.096-55.296 10.24-81.92zM733.184 580.169c-26.624 40.96-63.488 73.728-108.544 96.256 20.48-26.624 36.864-59.392 47.104-96.256h61.44zM368.64 459.337h120.832v81.92h-110.592c-6.144-26.624-10.24-53.248-10.24-81.92zM489.472 176.713v118.784h-100.352c22.528-61.44 59.392-106.496 100.352-118.784zM391.168 580.169h100.352v118.784c-43.008-10.24-79.872-55.296-100.352-118.784zM397.312 676.425c-45.056-20.48-81.92-55.296-108.544-96.256h61.44c10.24 38.912 26.624 71.68 47.104 96.256zM337.92 541.257h-71.68c-10.24-24.576-16.384-53.248-18.432-81.92h79.872c2.048 28.672 4.096 55.296 10.24 81.92zM327.68 418.377h-79.872c2.048-28.672 8.192-55.296 18.432-81.92h71.68c-6.144 26.624-8.192 53.248-10.24 81.92zM288.768 297.545c26.624-40.96 63.488-73.728 108.544-96.256-20.48 26.624-36.864 59.392-47.104 96.256 0 0-61.44 0-61.44 0zM681.984 541.257c6.144-24.576 8.192-53.248 10.24-81.92h79.872c-2.048 28.672-8.192 55.296-18.432 81.92h-71.68zM681.984 336.457h71.68c10.24 24.576 16.384 53.248 18.432 81.92h-79.872c0-28.672-4.096-55.296-10.24-81.92zM512 950.857c-282.624 0-512-229.376-512-512s229.376-512 512-512 512 229.376 512 512-229.376 512-512 512zM815.104 418.377v0c-10.24-151.552-133.12-274.432-284.672-282.624v0h-40.96c-151.552 10.24-274.432 131.072-284.672 282.624v0 40.96c10.24 151.552 131.072 274.432 284.672 284.672v0h40.96c151.552-10.24 274.432-131.072 282.624-284.672v0l2.048-40.96zM530.432 701.001v-118.784h100.352c-22.528 61.44-59.392 106.496-100.352 118.784zM624.64 201.289c45.056 20.48 81.92 55.296 108.544 96.256h-61.44c-12.288-38.912-28.672-71.68-47.104-96.256zM641.024 541.257h-110.592v-81.92h120.832c0 28.672-4.096 55.296-10.24 81.92zM530.432 297.545v-118.784c40.96 10.24 77.824 55.296 100.352 118.784 0 0-100.352 0-100.352 0zM651.264 418.377h-120.832v-81.92h110.592c6.144 26.624 10.24 53.248 10.24 81.92z" />
<glyph unicode="&#xe60e;" glyph-name="tab-scc" d="M511.77 951.317c282.784 0 512.23-229.446 512.23-512.23s-228.986-512.23-512.23-512.23-512.23 229.446-512.23 512.23 229.446 512.23 512.23 512.23zM716.846 336.549l15.634 280.485 68.512 74.949c0.46 0.46 0.46 1.379 0.46 2.299-6.437 13.794-23.45 18.852-23.91 18.852-0.92 0-1.379 0-1.839-0.46l-63.454-77.248c-56.097 17.013-124.609 37.245-200.018 37.245v0c-75.409 0-143.921-20.232-200.018-37.245l-64.374 76.329c-0.46 0.46-1.379 0.92-1.839 0.46-0.92 0-17.473-5.058-23.91-18.852-0.46-0.92 0-1.379 0.46-2.299l68.512-74.949 15.634-280.485c2.759-43.222 23.45-80.927 59.775-111.274l-12.415-14.254c-0.46 0-1.379 0-1.379-0.46l-21.611-21.151c0 0-1.379-2.759-4.598-2.759-1.839 0-3.678 0.92-5.978 2.759s-5.058 4.138-7.817 6.437c-7.817 6.437-17.473 14.714-29.428 21.151l-1.379 0.92c-10.116 5.518-20.692 11.495-29.428 11.495-4.598 0-8.736-1.839-11.955-5.058-9.196-10.116-12.875-22.071-10.116-33.106s7.817-21.151 33.566-25.749c18.392-3.219 32.647-5.518 43.222-5.518 5.058 0 8.736 0.46 11.955 1.379 12.875 4.138 37.245 31.727 44.142 40.004 0.46 0.46 0.46 0.92 0.46 1.379 0 0 0 0 0 0.46l12.875 14.254c11.035-7.817 22.991-15.174 35.865-22.071 48.74-25.29 96.101-33.106 97.94-33.566h0.92c1.839 0.46 49.2 8.277 97.94 33.566 13.335 6.897 25.29 14.254 35.865 22.071l12.875-14.714c0 0 0 0 0-0.46s0-0.92 0.46-1.379c7.357-8.277 31.267-36.325 44.142-40.004 3.219-0.92 7.357-1.379 11.955-1.379 10.576 0 24.83 2.299 43.222 5.518 26.209 4.598 30.807 14.714 33.566 25.749s-0.92 22.991-10.116 33.106c-3.219 3.219-7.357 5.058-11.955 5.058-8.736 0-19.312-5.978-29.428-11.495l-1.379-0.92c-11.495-6.437-21.611-14.714-29.428-21.151-2.759-2.299-5.518-4.598-7.817-6.437s-4.138-2.759-5.978-2.759c-3.219 0-4.598 2.759-4.598 2.759s0 0.46-0.46 0.46l-21.151 20.692c-0.46 0.46-0.92 0.46-1.379 0.46l-12.415 14.254c38.164 31.727 58.856 69.432 61.615 112.654zM511.77 176.994c-19.312 3.678-182.085 38.624-189.902 160.474 0 0-2.299 39.544-5.058 88.744h131.046c-0.92 4.598-1.839 9.656-1.839 14.714 0 36.785 29.888 66.673 67.132 66.673s67.132-29.888 67.132-66.673c0-5.058-0.46-9.656-1.839-14.714h127.828c-2.759-49.2-5.058-88.744-5.058-88.744-7.817-121.85-170.13-156.796-189.442-160.474z" />
<glyph unicode="&#xe60f;" glyph-name="bundle" d="M223.986 300.011h255.895v127.947h-255.895v-127.947zM351.934 310.496c-4.197 0-7.97 3.355-7.97 7.97 0 4.197 3.355 7.97 7.97 7.97 4.194 0 7.97-3.355 7.97-7.97-0.418-4.194-3.776-7.97-7.97-7.97zM377.943 331.892h-7.131c-0.418 0-0.841 0-1.678 0.837l-0.421 0.421c-4.194 5.033-10.069 7.97-17.2 7.97-6.711 0-13.003-2.937-17.198-7.97l-0.421-0.421c-0.421-0.421-0.841-0.837-1.678-0.837h-6.293c-1.259 0-1.678 0.837-1.678 1.257 0 1.259 2.096 3.774 2.096 3.774 5.454 7.131 14.265 13.006 26.009 13.006 11.326 0 20.135-5.874 26.009-13.006 0 0 1.678-2.517 2.098-3.774-0.839-0.421-1.262-1.257-2.517-1.257zM402.693 344.055h-7.552c-0.839 0-1.678 0.421-2.098 0.841 0 0 0 0-0.418 0.421-0.421 0.418-0.839 0.837-0.839 1.257v0c-9.227 12.165-23.49 19.717-39.851 19.717v0c-16.361 0-30.624-7.552-39.851-19.717v0c-0.421-0.421-0.839-0.839-0.839-1.257-0.421-0.421-0.421-0.421-0.421-0.421-0.421-0.423-0.839-0.841-2.096-0.841h-7.55c-1.259 0-1.678 0.421-1.678 1.678 0 0.839 0.418 1.259 0.418 1.68 1.259 2.096 2.519 4.613 4.194 6.29v0c10.907 14.261 28.107 23.074 47.403 23.074v0c19.298 0 36.496-9.232 47.406-23.074v0c1.675-2.096 2.935-4.194 4.192-6.29 0.418-0.423 0.418-1.262 0.418-1.68 0.839-1.257 0.418-1.678-0.839-1.678zM273.065 366.711c1.678 3.355 4.194 6.713 6.293 9.65v0c16.779 21.392 43.209 35.237 72.155 35.237v0c29.365 0 55.374-13.845 72.153-35.237v0c2.517-2.937 4.615-6.295 6.295-9.65 0.418-0.837 0.837-1.678 0.837-2.937 0-1.675-0.837-2.519-2.935-2.519h-11.328c-1.257 0-2.096 0.421-2.935 1.262 0 0 0 0.421-0.421 0.837-0.418 0.839-0.839 1.259-1.678 2.098l-0.421 0.423c-13.842 18.457-36.075 30.201-60.409 30.201v0c-24.75 0-46.565-11.746-60.407-30.201l-0.421-0.423c-0.418-0.839-0.837-1.259-1.675-2.098-0.423-0.418-0.423-0.837-0.423-0.837-0.837-0.841-1.675-1.262-2.935-1.262h-11.328c-1.675 0-2.935 0.841-2.935 2.519 1.262 0.839 2.098 2.098 2.517 2.937zM383.813 276.098h-63.762c-4.615 0-7.97-3.774-7.97-7.968 0-4.197 3.774-7.97 7.97-7.97h63.762c4.617 0 7.97 3.774 7.97 7.97 0.002 4.194-3.353 7.968-7.97 7.968zM342.704 769.428h355.314v-177.447h-355.314v177.447zM510.505 895.698c-250.021 0-453.061-203.040-453.061-453.061 0-250.018 203.040-453.056 453.061-453.056s453.058 203.038 453.058 453.056c0 250.023-203.040 453.061-453.058 453.061zM307.047 680.914v88.514c0 19.717 15.941 35.659 35.659 35.659h355.314c19.719 0 35.659-15.943 35.659-35.659v-177.865c0-19.717-15.941-35.659-35.659-35.659h-124.59v-17.618h53.278c5.031 0 8.809-3.776 8.809-8.809 0-5.035-3.774-8.809-8.809-8.809h-213.109c-5.035 0-8.809 3.774-8.809 8.809 0 5.033 3.774 8.809 8.809 8.809h53.275v17.618h-124.171c-19.717 0-35.659 15.941-35.659 35.659v89.351zM543.643 252.187c0-8.809-7.131-15.943-15.941-15.943h-351.541c-8.809 0-15.943 7.131-15.943 15.943v39.854h31.883v135.918c0 17.618 14.263 31.881 31.883 31.881h255.895c17.621 0 31.881-14.263 31.881-31.881v-135.918h31.883v-39.854h-0.002zM719.835 242.537c0 0-41.113-62.505-42.37-63.762-5.872-5.874-15.525-5.874-21.394 0l-8.809 8.807 56.215 86.416c7.552-4.194 14.263-7.968 15.943-10.066 5.449-5.451 4.613-14.679 0.416-21.394zM799.541 418.308c0 0-42.37-10.487-79.705-47.824-37.337-37.335-47.826-79.703-47.826-79.703s8.809-4.197 18.457-9.648l-54.117-83.065-28.523 28.528c-1.257 1.257-2.517 2.517-3.355 4.194-0.421 0.418-0.421 0.841-0.839 1.259-0.839 1.257-1.678 2.098-2.098 3.355-0.418 0.423-0.418 0.839-0.837 1.262-0.841 1.257-1.259 2.514-2.098 3.774 0 0.421-0.421 0.421-0.421 0.837-0.839 1.68-1.259 3.358-1.678 5.035 0 0 0 0 0 0.421-0.418 1.675-0.839 3.355-1.259 5.031 0 0.423 0 0.423 0 0.839-0.418 1.678-0.418 3.358-0.418 5.035v0.421c0 3.774 0.418 7.131 0.837 10.905v0 0c0.423 1.678 0.839 3.358 1.259 5.033 0 0.423 0 0.423 0.421 0.841 0.423 1.673 1.259 3.355 2.098 5.031v0c17.621 46.565 44.885 90.613 82.64 127.95 37.337 37.337 81.383 65.022 127.95 82.64 1.68 0.839 3.355 1.678 5.035 2.098 0.421 0 0.421 0 0.837 0.421 5.033 1.675 10.905 2.517 16.363 2.517h0.418c1.673 0 3.353 0 4.617-0.421 0.418 0 0.418 0 0.834 0 1.678-0.421 3.358-0.421 5.035-1.259 0 0 0 0 0.418 0 1.675-0.418 3.355-1.257 5.033-1.678 0.423 0 0.423-0.421 0.841-0.421 1.255-0.418 2.514-1.257 3.771-2.094 0.421-0.421 0.841-0.421 1.259-0.841 1.259-0.839 2.098-1.257 3.355-2.096 0.421-0.421 0.841-0.421 1.262-0.841 1.255-1.257 2.935-2.096 4.192-3.355l28.528-28.526-82.638-54.114c-5.458 9.65-9.65 18.459-9.65 18.459zM847.362 370.484c-6.293-4.194-15.522-5.872-21.394 0-1.675 1.678-5.87 8.393-10.066 15.943l86.416 56.21 8.809-8.807c5.87-5.872 5.87-15.522 0-21.394-1.262-0.841-63.765-41.952-63.765-41.952z" />
<glyph unicode="&#xe610;" glyph-name="channellisting" d="M506.795 896.841c-250.176 0-453.339-203.163-453.339-453.339s203.163-453.339 453.339-453.339 453.339 203.163 453.339 453.339-203.163 453.339-453.339 453.339zM843.858 309.6c0-30.642-24.763-55.829-55.403-55.829h-193.929v-28.126h152.37c7.557 0 13.854-6.297 13.854-13.854v-28.121c0-7.557-6.297-13.856-13.854-13.856h-471.387c-7.557 0-13.854 6.299-13.854 13.856v28.123c0 7.557 6.297 13.854 13.854 13.854h152.373v28.126h-194.35c-30.642 0-55.406 25.186-55.406 55.829v279.138c0 31.063 25.186 56.247 55.406 56.247h554.501c30.645 0 55.408-25.186 55.408-55.829v-279.557h0.418zM788.455 561.035v-223.312c0-15.529-12.594-28.123-27.705-28.123h-499.095c-15.111 0-27.703 12.594-27.703 28.123v223.312c0 15.531 12.592 28.123 27.703 28.123h499.095c15.111-0.421 27.705-12.592 27.705-28.123zM322.521 516.537v20.571c0 6.715-5.456 11.753-11.753 11.753h-20.569c-6.715 0-11.753-5.458-11.753-11.753v-20.571c0-6.713 5.458-11.753 11.753-11.753h20.569c6.715-0.416 11.753 5.040 11.753 11.753zM708.279 516.537v20.571c0 6.715-5.456 11.753-11.755 11.753h-317.335c-6.715 0-11.753-5.458-11.753-11.753v-20.571c0-6.713 5.456-11.753 11.753-11.753h317.337c6.297-0.416 11.753 5.040 11.753 11.753zM322.521 435.947v20.569c0 6.715-5.456 11.753-11.753 11.753h-20.569c-6.715 0-11.753-5.458-11.753-11.753v-20.569c0-6.715 5.458-11.755 11.753-11.755h20.569c6.715 0 11.753 5.458 11.753 11.755zM708.279 435.947v20.569c0 6.715-5.456 11.753-11.755 11.753h-317.335c-6.715 0-11.753-5.458-11.753-11.753v-20.569c0-6.715 5.456-11.755 11.753-11.755h317.337c6.297 0 11.753 5.458 11.753 11.755zM322.521 355.769v20.571c0 6.715-5.456 11.753-11.753 11.753h-20.569c-6.715 0-11.753-5.456-11.753-11.753v-20.571c0-6.715 5.458-11.751 11.753-11.751h20.569c6.715-0.418 11.753 5.038 11.753 11.751zM708.279 355.769v20.571c0 6.715-5.456 11.753-11.755 11.753h-317.335c-6.715 0-11.753-5.456-11.753-11.753v-20.571c0-6.715 5.456-11.751 11.753-11.751h317.337c6.297-0.418 11.753 5.038 11.753 11.751z" />
<glyph unicode="&#xe700;" glyph-name="doc" d="M224 598.857h576v-64h-576v64zM224 470.857h576v-64h-576v64zM224 342.857h576v-64h-576v64zM224 214.857h576v-64h-576v64zM224 726.857h576v-64h-576v64zM960 791.721c0 52.544-44.32 95.136-98.944 95.136h-698.112c-54.656 0-98.944-42.592-98.944-95.136v-701.728c0-52.544 44.288-99.136 98.944-99.136h698.080c54.656 0 98.976 46.592 98.976 99.136v701.728zM160 86.857v704h714.464l0.064-704h-714.528z" />
<glyph unicode="&#xe701;" glyph-name="close" d="M580.832 438.857l381.6 381.568c19.008 19.008 19.008 49.824 0 68.832-19.008 19.040-49.856 19.040-68.832 0l-381.632-381.568-381.504 381.568c-19.008 19.040-49.856 19.040-68.832 0-19.008-19.008-19.008-49.824 0-68.832l381.472-381.568-381.536-381.568c-19.008-19.008-19.008-49.856 0-68.832 19.008-19.040 49.856-19.040 68.832 0l381.536 381.568 381.6-381.568c9.504-9.504 21.952-14.272 34.432-14.272 12.448 0 24.928 4.736 34.432 14.272 19.008 19.008 19.008 49.856 0 68.832l-381.568 381.568z" />
<glyph unicode="&#xe702;" glyph-name="link" d="M766.112 468.073l-87.328-87.84v-265.376h-486.144v486.176h246.24l92 92h-430.24v-670.176h670.144v440.48zM923.328 854.857l-381.376-32.544 124.16-124.192-248.48-248.448 100.544-100.544 247.744 249.216 124.896-124.928z" />
<glyph unicode="&#xe703;" glyph-name="menu" d="M97.28-5.239v219.872h64.288l38.624-150.016 38.208 150.016h64.448v-219.872h-39.904v173.12l-42.24-173.12h-41.408l-42.112 173.12v-173.12h-39.904zM345.536-5.239v219.872h157.792v-37.184h-114.848v-48.768h106.848v-37.024h-106.848v-59.872h118.912v-37.024h-161.856zM544.256-5.239v219.872h41.824l87.104-146.848v146.848h39.968v-219.872h-43.136l-85.76 143.392v-143.392h-40zM758.272 214.665h42.944v-119.104c0-18.88 0.544-31.168 1.6-36.736 1.856-9.024 6.208-16.256 13.152-21.696 6.912-5.44 16.384-8.16 28.384-8.16 12.192 0 21.376 2.56 27.584 7.712 6.176 5.12 9.888 11.488 11.168 18.976 1.248 7.488 1.888 19.936 1.888 37.344v121.664h43.008v-115.488c0-26.4-1.184-45.056-3.488-55.968-2.336-10.88-6.592-20.096-12.864-27.584-6.208-7.52-14.56-13.472-25.024-17.92s-24.096-6.688-40.928-6.688c-20.352 0-35.744 2.432-46.24 7.296s-18.784 11.168-24.896 18.88c-6.112 7.744-10.112 15.872-12.064 24.384-2.816 12.576-4.192 31.232-4.192 55.776v117.312zM96 854.857h832v-128h-832v128zM96 630.857h832v-128h-832v128zM96 406.857h832v-128h-832v128z" />
<glyph unicode="&#xe704;" glyph-name="left" d="M608 22.857l-416 416 416 416z" />
<glyph unicode="&#xe705;" glyph-name="right" d="M352 854.857l416-416-416-416z" />
<glyph unicode="&#xe706;" glyph-name="question" d="M512 854.857c-229.376 0-416-186.624-416-416s186.624-416 416-416 416 186.624 416 416c0 229.376-186.624 416-416 416zM512 89.417c-192.672 0-349.44 156.768-349.44 349.44s156.768 349.44 349.44 349.44 349.44-156.768 349.44-349.44c0-192.672-156.768-349.44-349.44-349.44zM323.904 539.401c0 22.464 7.232 45.216 21.664 68.288 14.4 23.040 35.456 42.144 63.136 57.28 27.648 15.136 59.936 22.688 96.8 22.688 34.272 0 64.576-6.336 90.816-18.976 26.208-12.672 46.496-29.856 60.8-51.616s21.472-45.376 21.472-70.944c0-20.096-4.096-37.696-12.256-52.832s-17.856-28.192-29.088-39.2c-11.232-10.976-31.36-29.504-60.48-55.488-8.032-7.328-14.464-13.792-19.328-19.328-4.832-5.568-8.48-10.656-10.816-15.264-2.368-4.608-4.224-9.216-5.504-13.824-1.312-4.608-3.264-12.704-5.888-24.288-4.48-24.608-18.56-36.896-42.176-36.896-12.32 0-22.656 4-31.040 12.064-8.416 8.032-12.608 20-12.608 35.808 0 19.872 3.072 37.056 9.216 51.616s14.304 27.328 24.48 38.304c10.144 11.008 23.872 24.064 41.152 39.2 15.136 13.248 26.048 23.232 32.768 29.984 6.752 6.72 12.448 14.24 17.024 22.528 4.64 8.256 6.944 17.248 6.944 26.944 0 18.912-7.072 34.88-21.12 47.872s-32.224 19.52-54.432 19.52c-26.016 0-45.152-6.56-57.44-19.68-12.32-13.12-22.72-32.448-31.232-57.984-8.032-26.72-23.296-40.064-45.76-40.064-13.248 0-24.416 4.672-33.536 14.016-8.992 9.28-13.568 19.392-13.568 30.272zM496.992 150.697c-14.432 0-27.040 4.672-37.792 14.016s-16.128 22.4-16.128 39.2c0 14.88 5.184 27.424 15.584 37.6 10.4 10.144 23.168 15.264 38.304 15.264 14.88 0 27.392-5.088 37.6-15.264 10.144-10.176 15.264-22.688 15.264-37.6 0-16.576-5.312-29.568-15.968-39.008-10.592-9.472-22.912-14.208-36.864-14.208z" />
<glyph unicode="&#xe707;" glyph-name="check" d="M512 912.457c-262.4 0-473.6-211.2-473.6-473.6s211.2-473.6 473.6-473.6 473.6 211.2 473.6 473.6-211.2 473.6-473.6 473.6zM416 138.057l-300.8 281.6 102.4 115.2 198.4-172.8 339.2 339.2 115.2-102.4-454.4-460.8z" />
<glyph unicode="&#xe708;" glyph-name="expand" d="M511.968 206.313v0c-12.992 0-25.504 5.152-34.688 14.368l-366.912 366.976c-19.168 19.168-19.168 50.208 0 69.376s50.208 19.168 69.376 0l332.224-332.288 332.288 332.288c19.168 19.168 50.208 19.168 69.376 0s19.168-50.208 0-69.376l-366.976-366.976c-9.216-9.184-21.696-14.368-34.688-14.368z" />
<glyph unicode="&#xe709;" glyph-name="help" d="M259.008 70.857v174.176h35.136v-68.544h68.96v68.544h35.136v-174.176h-35.136v76.16h-68.96v-76.16h-35.136zM507.488 111.017l33.248-5.6c-4.32-12.192-11.072-21.472-20.32-27.872-9.184-6.368-20.704-9.568-34.56-9.568-21.952 0-38.176 7.168-48.768 21.504-8.256 11.488-12.448 25.984-12.448 43.488 0 20.928 5.44 37.312 16.416 49.152 10.912 11.84 24.736 17.76 41.44 17.76 18.784 0 33.6-6.208 44.416-18.592 10.88-12.416 16.064-31.392 15.584-56.992h-83.616c0.192-9.888 2.88-17.6 8.064-23.104 5.12-5.504 11.52-8.256 19.264-8.256 5.248 0 9.6 1.408 13.152 4.256 3.584 2.88 6.304 7.488 8.128 13.824zM509.344 144.745c-0.256 9.664-2.752 17.024-7.456 22.048-4.768 5.024-10.56 7.552-17.344 7.552-7.328 0-13.312-2.656-18.080-7.968-4.704-5.312-7.072-12.512-7.008-21.632h49.888zM569.728 70.857v174.176h33.376v-174.176h-33.376zM636.352 197.033h31.136v-18.528c4.064 6.336 9.568 11.488 16.416 15.456 6.912 3.968 14.592 5.952 22.944 5.952 14.656 0 27.072-5.76 37.344-17.216 10.208-11.488 15.328-27.488 15.328-48 0-21.056-5.184-37.44-15.488-49.152-10.24-11.68-22.752-17.504-37.408-17.504-6.944 0-13.312 1.376-18.944 4.16-5.696 2.784-11.648 7.52-17.888 14.24v-63.584h-33.408v174.176zM669.408 136.073c0-14.176 2.784-24.64 8.448-31.424 5.632-6.752 12.48-10.144 20.544-10.144 7.776 0 14.208 3.104 19.328 9.312 5.184 6.208 7.712 16.416 7.712 30.624 0 13.248-2.624 23.040-7.904 29.472-5.344 6.4-11.904 9.632-19.744 9.632-8.16 0-14.944-3.168-20.32-9.44-5.376-6.336-8.064-15.648-8.064-28.032zM512 854.857c-141.152 0-256-114.848-256-256s114.848-256 256-256 256 114.848 256 256c0 141.152-114.848 256-256 256zM512 383.817c-118.56 0-215.040 96.448-215.040 215.040 0 118.56 96.48 215.040 215.040 215.040s215.040-96.448 215.040-215.040c0-118.592-96.48-215.040-215.040-215.040zM396.256 660.745c0 13.824 4.448 27.84 13.312 42.016s21.824 25.92 38.848 35.232c17.024 9.312 36.896 13.984 59.584 13.984 21.088 0 39.744-3.904 55.872-11.68s28.608-18.368 37.408-31.744 13.216-27.936 13.216-43.648c0-12.352-2.528-23.2-7.552-32.512s-10.976-17.344-17.888-24.128c-6.912-6.752-19.296-18.144-37.216-34.144-4.928-4.512-8.896-8.48-11.872-11.904s-5.216-6.56-6.656-9.376c-1.472-2.848-2.592-5.664-3.392-8.512s-2.016-7.84-3.616-14.944c-2.752-15.136-11.424-22.688-25.952-22.688-7.584 0-13.952 2.464-19.104 7.424-5.184 4.928-7.744 12.288-7.744 22.048 0 12.224 1.888 22.816 5.664 31.744 3.776 8.96 8.8 16.8 15.072 23.552 6.24 6.784 14.688 14.816 25.312 24.128 9.312 8.16 16.032 14.304 20.16 18.432 4.16 4.16 7.648 8.768 10.496 13.856s4.256 10.624 4.256 16.576c0 11.648-4.352 21.472-12.992 29.472s-19.84 12-33.504 12c-16 0-27.776-4.032-35.36-12.128-7.584-8.064-13.984-19.968-19.2-35.68-4.928-16.448-14.336-24.672-28.16-24.672-8.16 0-15.008 2.88-20.64 8.608-5.536 5.76-8.352 11.968-8.352 18.688zM502.784 421.545c-8.896 0-16.64 2.88-23.264 8.64-6.624 5.728-9.92 13.792-9.92 24.128 0 9.152 3.2 16.864 9.6 23.136 6.4 6.24 14.24 9.376 23.584 9.376 9.152 0 16.864-3.136 23.136-9.376 6.24-6.272 9.376-13.984 9.376-23.136 0-10.208-3.264-18.208-9.824-24-6.56-5.856-14.112-8.768-22.688-8.768z" />
<glyph unicode="&#xe70a;" glyph-name="top" d="M511.040 718.153l-128.608-128.608h77.152v-113.952h102.912l-0.48 113.952h77.664zM512 854.857c-139.328 0-252.672-113.344-252.672-252.672s113.344-252.672 252.672-252.672c139.328 0 252.672 113.344 252.672 252.672s-113.344 252.672-252.672 252.672zM512 389.929c-117.056 0-212.256 95.2-212.256 212.256 0 117.024 95.232 212.224 212.256 212.224 116.992 0 212.224-95.2 212.224-212.224 0.032-117.056-95.2-212.256-212.224-212.256zM356.416 70.697v144.288h-51.552v29.344h138.016v-29.344h-51.392v-144.288h-35.072zM439.552 135.369c0 11.072 2.752 21.76 8.16 32.096 5.472 10.336 13.216 18.24 23.2 23.68 9.984 5.472 21.12 8.192 33.44 8.192 19.008 0 34.656-6.176 46.784-18.56 12.16-12.352 18.24-27.968 18.24-46.848 0-19.040-6.112-34.784-18.4-47.328-12.256-12.512-27.744-18.784-46.4-18.784-11.52 0-22.496 2.624-32.96 7.84s-18.432 12.832-23.904 22.912c-5.408 10.112-8.16 22.368-8.16 36.8zM473.664 133.577c0-12.48 2.944-22.016 8.896-28.672 5.92-6.624 13.216-9.92 21.92-9.92 8.672 0 15.968 3.328 21.888 9.92 5.888 6.656 8.8 16.256 8.8 28.896 0 12.32-2.912 21.792-8.8 28.416-5.92 6.624-13.184 9.952-21.888 9.952s-16-3.328-21.92-9.952c-5.952-6.592-8.896-16.128-8.896-28.64zM594.496 196.489h31.040v-18.496c4.032 6.304 9.472 11.456 16.352 15.392 6.848 3.968 14.496 5.92 22.848 5.92 14.592 0 27.008-5.728 37.184-17.184s15.296-27.392 15.296-47.84c0-20.992-5.152-37.344-15.424-48.992-10.24-11.648-22.688-17.472-37.312-17.472-6.944 0-13.248 1.376-18.848 4.16-5.664 2.752-11.616 7.488-17.856 14.208v-63.328h-33.28v173.632zM627.424 135.721c0-14.112 2.784-24.576 8.384-31.328 5.632-6.752 12.448-10.112 20.512-10.112 7.744 0 14.176 3.104 19.296 9.312 5.12 6.176 7.68 16.352 7.68 30.496 0 13.184-2.656 22.976-7.936 29.376s-11.84 9.6-19.648 9.6c-8.128 0-14.88-3.136-20.256-9.408-5.376-6.304-8.032-15.616-8.032-27.936z" />
<glyph unicode="&#xe70b;" glyph-name="closehelp" d="M176.896 269.737l23.456-7.456c-3.584-13.088-9.568-22.752-17.92-29.12s-18.976-9.536-31.808-9.536c-15.936 0-28.992 5.44-39.232 16.288-10.272 10.912-15.392 25.76-15.392 44.608 0 19.936 5.152 35.424 15.424 46.432 10.304 11.040 23.84 16.576 40.64 16.576 14.656 0 26.528-4.32 35.712-12.992 5.408-5.12 9.504-12.48 12.224-22.048l-23.936-5.728c-1.408 6.208-4.384 11.136-8.896 14.72-4.48 3.552-9.92 5.376-16.352 5.376-8.864 0-16.064-3.2-21.6-9.568s-8.288-16.672-8.288-30.944c0-15.168 2.72-25.92 8.128-32.352 5.472-6.432 12.544-9.632 21.248-9.632 6.432 0 11.968 2.016 16.576 6.112 4.672 4.064 7.968 10.464 10.016 19.264zM220.928 225.673v119.808h22.944v-119.808h-22.944zM262.112 270.281c0 7.616 1.888 15.008 5.632 22.144s9.088 12.608 15.968 16.352c6.88 3.744 14.592 5.632 23.072 5.632 13.12 0 23.904-4.288 32.256-12.8 8.416-8.544 12.608-19.264 12.608-32.288 0-13.152-4.224-24.032-12.736-32.672-8.448-8.64-19.136-12.96-31.968-12.96-7.968 0-15.52 1.792-22.784 5.408-7.2 3.584-12.704 8.864-16.448 15.808-3.744 6.976-5.6 15.424-5.6 25.376zM285.632 269.065c0-8.608 2.016-15.2 6.112-19.776 4.064-4.544 9.12-6.848 15.104-6.848s11.008 2.272 15.072 6.848c4.064 4.576 6.144 11.232 6.144 19.936 0 8.512-2.080 15.040-6.144 19.616-4.032 4.576-9.088 6.848-15.072 6.848-6.016 0-11.040-2.272-15.104-6.848s-6.112-11.168-6.112-19.776zM361.536 250.441l23.072 3.52c0.96-4.48 2.976-7.872 5.952-10.176 3.008-2.304 7.2-3.488 12.576-3.488 5.952 0 10.4 1.088 13.408 3.264 2.016 1.504 3.040 3.552 3.040 6.112 0 1.76-0.544 3.2-1.632 4.352-1.152 1.088-3.712 2.080-7.68 3.040-18.528 4.064-30.272 7.808-35.232 11.2-6.848 4.672-10.24 11.2-10.24 19.52 0 7.52 2.944 13.824 8.864 18.944 5.952 5.12 15.168 7.712 27.616 7.712 11.872 0 20.672-1.952 26.464-5.824s9.76-9.568 11.904-17.152l-21.632-4c-0.928 3.392-2.688 5.984-5.28 7.776s-6.272 2.688-11.072 2.688c-6.016 0-10.336-0.832-12.96-2.528-1.76-1.216-2.624-2.752-2.624-4.672 0-1.632 0.736-3.008 2.272-4.16 2.048-1.536 9.216-3.68 21.44-6.496 12.224-2.752 20.768-6.144 25.632-10.208 4.768-4.064 7.2-9.76 7.2-17.056 0-7.968-3.328-14.784-9.984-20.512-6.656-5.696-16.48-8.576-29.504-8.576-11.808 0-21.184 2.4-28.064 7.2-6.912 4.8-11.392 11.296-13.536 19.52zM512.928 253.321l22.88-3.84c-2.944-8.416-7.584-14.784-13.92-19.168s-14.272-6.592-23.808-6.592c-15.104 0-26.24 4.928-33.504 14.784-5.728 7.904-8.576 17.888-8.576 29.92 0 14.4 3.744 25.632 11.264 33.792 7.52 8.128 17.056 12.224 28.544 12.224 12.896 0 23.104-4.288 30.56-12.8 7.456-8.544 11.040-21.568 10.688-39.168h-57.504c0.16-6.784 2.016-12.096 5.568-15.904 3.52-3.776 7.936-5.664 13.216-5.664 3.584 0 6.624 0.96 9.056 2.944 2.464 1.952 4.288 5.088 5.536 9.472zM514.24 276.521c-0.16 6.624-1.92 11.68-5.152 15.168-3.264 3.456-7.264 5.184-11.904 5.184-5.024 0-9.152-1.824-12.448-5.472-3.264-3.616-4.864-8.608-4.8-14.848h34.304zM625.12 345.481v-44.064c7.392 8.672 16.256 12.992 26.56 12.992 5.28 0 10.048-0.992 14.272-2.944 4.288-1.952 7.456-4.48 9.6-7.52s3.616-6.432 4.448-10.112c0.768-3.712 1.184-9.44 1.184-17.248v-50.912h-23.008v45.824c0 9.12-0.416 14.88-1.28 17.344-0.864 2.432-2.4 4.384-4.64 5.856s-4.96 2.144-8.32 2.144c-3.776 0-7.2-0.928-10.176-2.784-3.008-1.856-5.184-4.672-6.592-8.384-1.376-3.744-2.048-9.248-2.048-16.576v-43.456h-22.976v119.808h22.976zM754.72 253.321l22.88-3.84c-2.976-8.416-7.584-14.784-13.92-19.168s-14.272-6.592-23.808-6.592c-15.104 0-26.272 4.928-33.504 14.784-5.76 7.904-8.576 17.888-8.576 29.92 0 14.4 3.744 25.632 11.296 33.792 7.52 8.128 16.992 12.224 28.512 12.224 12.928 0 23.136-4.288 30.56-12.8 7.456-8.544 11.040-21.568 10.72-39.168h-57.6c0.16-6.784 2.016-12.096 5.568-15.904 3.52-3.776 7.968-5.664 13.248-5.664 3.552 0 6.592 0.96 9.056 2.944 2.432 1.952 4.32 5.088 5.568 9.472zM756 276.521c-0.16 6.624-1.888 11.68-5.12 15.168-3.264 3.456-7.232 5.184-11.936 5.184-5.024 0-9.152-1.824-12.416-5.472-3.296-3.616-4.864-8.608-4.832-14.848h34.304zM797.536 225.673v119.808h22.944v-119.808h-22.944zM843.328 312.457h21.408v-12.736c2.784 4.32 6.56 7.904 11.296 10.624s9.984 4.096 15.744 4.096c10.080 0 18.656-3.968 25.696-11.872s10.528-18.88 10.528-33.024c0-14.464-3.52-25.76-10.624-33.76-7.072-8.064-15.648-12.064-25.76-12.064-4.768 0-9.12 0.928-12.992 2.88-3.904 1.888-8 5.152-12.32 9.792v-43.712h-22.976v119.776zM866.048 270.569c0-9.76 1.952-16.96 5.824-21.6 3.872-4.672 8.576-6.976 14.112-6.976 5.344 0 9.792 2.112 13.312 6.4 3.552 4.288 5.312 11.296 5.312 21.056 0 9.088-1.824 15.84-5.472 20.256s-8.192 6.592-13.568 6.592c-5.6 0-10.24-2.144-13.984-6.496-3.648-4.352-5.536-10.784-5.536-19.232zM529.856 590.697l85.376 85.408c4.928 4.928 4.928 12.928 0 17.856-4.928 4.896-12.896 4.896-17.856 0l-85.376-85.44-85.408 85.408c-4.928 4.896-12.896 4.896-17.856 0-4.928-4.928-4.928-12.896 0-17.856l85.376-85.408-85.408-85.408c-4.928-4.928-4.928-12.928 0-17.856 4.928-4.896 12.896-4.896 17.856 0l85.44 85.44 85.376-85.408c2.464-2.464 5.696-3.68 8.928-3.68s6.464 1.248 8.928 3.68c4.928 4.928 4.928 12.896 0 17.856l-85.376 85.408z" />
<glyph unicode="&#xe70c;" glyph-name="user" d="M512 854.857c-229.728 0-416-186.24-416-416s186.272-416 416-416c229.792 0 416 186.24 416 416s-186.208 416-416 416zM503.296 691.529c70.336 0 127.36-57.024 127.36-127.36s-57.024-127.36-127.36-127.36c-70.368 0-127.36 57.024-127.36 127.36 0 70.304 56.992 127.36 127.36 127.36zM682.176 186.281c-0.64-0.032-1.28-0.032-1.888-0.032-16.288 0-29.952 12.672-31.008 29.12-0.832 12.096-12.544 119.744-145.984 119.744s-145.152-107.648-146.048-119.904c-1.248-17.024-16.128-30.208-32.992-28.768-17.024 1.152-29.92 15.712-28.896 32.736 3.776 61.6 52.032 178.016 207.936 178.016 155.84 0 204.192-116.416 207.968-178.016 1.056-17.12-11.968-31.84-29.088-32.896z" />
<glyph unicode="&#xe70d;" glyph-name="bill" d="M512 854.857c-229.728 0-416-186.272-416-416 0-229.76 186.272-416 416-416 229.76 0 416 186.24 416 416 0 229.728-186.24 416-416 416zM538.336 222.153v-59.008c0-12.064-6.336-17.76-17.76-17.76h-20.96c-12.064 0-17.76 6.368-17.76 17.76v58.368c-46.944 3.168-87.552 16.512-102.816 24.128-11.424 5.056-18.4 10.144-18.4 23.488v24.736c0 9.504 6.336 17.12 19.040 12.672 28.544-10.816 72.352-29.184 125.632-29.184 67.904 0 95.2 22.208 95.2 61.536 0 37.472-29.824 55.872-107.904 83.776-83.776 30.464-121.216 63.456-121.216 126.304 0 70.432 53.312 100.256 110.432 107.872v57.728c0 11.456 5.696 17.76 17.76 17.76h20.96c12.032 0 17.76-6.336 17.76-17.76v-55.84c28.576-1.92 52.672-8.256 74.24-15.872 13.344-5.088 15.872-12.672 15.872-21.568v-20.96c0-9.504-5.696-17.76-19.040-13.952-23.456 6.336-52.64 17.12-90.752 17.76-55.872 0.608-83.776-18.432-83.776-50.144 0-24.736 7.584-40.608 46.336-58.4 36.8-17.12 80.576-27.904 118.656-48.864 36.832-20.32 64.096-48.864 63.456-104.064 0.032-67.232-41.824-111.008-124.96-120.512z" />
<glyph unicode="&#xe70e;" glyph-name="internet" d="M316.8 363.369h402.656v201.344h-402.656v-201.344zM518.112 380.105c-6.752 0-12.256 5.472-12.256 12.224s5.504 12.256 12.256 12.256c6.784 0 12.256-5.472 12.256-12.256 0-6.752-5.472-12.224-12.256-12.224zM559.104 413.641h-10.912c-0.736 0-1.536 0.288-2.368 1.248l-0.704 0.768c-6.496 7.68-16.16 12.544-27.008 12.576-10.848-0.032-20.544-4.896-27.008-12.576l-0.704-0.768c-0.8-0.96-1.6-1.248-2.368-1.248h-10.88c-2.208 0-2.976 1.184-2.848 2.176 0.224 2.080 3.104 5.888 3.104 5.888 8.8 11.168 22.624 20.512 40.704 20.512 18.080-0.032 31.904-9.376 40.704-20.512 0 0 2.912-3.776 3.136-5.888 0.128-0.992-0.672-2.176-2.848-2.176zM597.92 432.521h-11.616c-1.472 0-2.368 0.48-3.104 1.472 0 0-0.224 0.32-0.576 0.864-0.512 0.736-1.024 1.504-1.568 2.208l-0.256 0.288c-14.4 18.88-37.12 31.104-62.656 31.104h-0.064c-25.536 0-48.256-12.224-62.656-31.104l-0.256-0.288c-0.544-0.704-1.024-1.472-1.536-2.208-0.384-0.576-0.608-0.864-0.608-0.864-0.704-0.96-1.568-1.472-3.104-1.472h-11.616c-1.856 0-2.912 0.896-2.912 2.592 0 0.992 0.544 2.144 0.96 2.944 1.888 3.584 4.16 7.008 6.688 10.176l0.192 0.192c17.44 22.176 44.512 36.48 74.848 36.48h0.064c30.336 0 57.44-14.272 74.848-36.48l0.16-0.192c2.56-3.168 4.8-6.56 6.72-10.176 0.416-0.8 0.96-1.92 0.96-2.944 0.032-1.696-1.024-2.592-2.912-2.592zM393.728 468.265c2.912 5.504 6.336 10.688 10.208 15.488l0.256 0.288c26.528 33.76 67.712 55.488 113.888 55.488h0.064c46.176 0 87.392-21.728 113.888-55.488l0.256-0.288c3.872-4.8 7.296-9.984 10.176-15.488 0.64-1.184 1.472-2.912 1.472-4.448 0-2.56-1.568-3.936-4.448-3.936h-17.696c-2.272 0-3.584 0.768-4.704 2.24 0 0-0.32 0.448-0.896 1.312-0.768 1.152-1.568 2.272-2.4 3.36l-0.384 0.448c-21.888 28.736-56.48 47.296-95.296 47.296h-0.064c-38.848 0-73.408-18.56-95.296-47.296l-0.352-0.48c-0.8-1.088-1.6-2.208-2.368-3.36-0.576-0.864-0.896-1.312-0.896-1.312-1.088-1.472-2.4-2.24-4.704-2.24h-17.664c-2.88 0-4.448 1.376-4.448 3.936-0.032 1.536 0.8 3.264 1.408 4.48zM568.448 325.609h-100.672c-6.944 0-12.576-5.632-12.576-12.576s5.632-12.576 12.576-12.576h100.672c6.944 0 12.576 5.632 12.576 12.576 0.032 6.944-5.6 12.576-12.576 12.576zM512 854.857c-229.76 0-416-186.24-416-416s186.24-416 416-416 416 186.24 416 416-186.24 416-416 416zM794.944 262.697h-553.664c-13.92 0-25.152 11.264-25.152 25.152v62.912h50.336v213.888c0 27.808 22.56 50.336 50.336 50.336h402.656c27.808 0 50.336-22.528 50.336-50.336v-213.92h50.336v-62.912c0-13.856-11.296-25.12-25.184-25.12z" />
<glyph unicode="&#xe70f;" glyph-name="tv" d="M254.112 588.361h498.272v-249.152h-498.272v249.152zM503.84 854.761c-229.696-4.512-412.256-194.336-407.744-424.064 4.512-229.696 194.336-412.256 424.064-407.744 229.696 4.512 412.288 194.368 407.744 424.064-4.512 229.696-194.368 412.256-424.064 407.744zM802.24 463.785v-124.608c0-27.552-22.336-49.856-49.856-49.856h-174.368v-24.896h74.72c6.912 0 12.48-5.6 12.48-12.448 0-6.912-5.568-12.512-12.48-12.512h-298.976c-6.88 0-12.448 5.6-12.448 12.512 0 6.848 5.568 12.448 12.448 12.448h74.752v24.896h-174.4c-27.52 0-49.856 22.272-49.856 49.856v249.184c0 27.52 22.304 49.856 49.856 49.856h498.272c27.488 0 49.856-22.304 49.856-49.856v-124.576z" />
<glyph unicode="&#xe710;" glyph-name="phone" d="M503.904 854.793c-229.728-4.576-412.288-194.4-407.84-424.096 4.512-229.728 194.368-412.288 424.128-407.744 229.632 4.48 412.256 194.304 407.712 424.064-4.448 229.664-194.272 412.224-424 407.776zM334.336 319.145c0 0-137.056-28.192-140.8-28.192-15.584 0-28.192 12.608-28.192 28.192v22.624l189.12 39.84c4.512-15.648 8.064-29.344 8.064-34.336 0-14.080-13.92-24.864-28.192-28.128zM841.312 334.505v-15.36c0-15.584-12.608-28.192-28.192-28.192-3.84 0-140.8 28.192-140.8 28.192-13.888 2.816-28.192 12.576-28.192 28.128 0 4.96 3.488 18.688 8.032 34.336l189.152-39.84v-7.264zM660.32 408.681c6.24 20.064 12 37.216 12 37.216s-70.432 42.24-168.992 42.24c-98.56 0-168.992-42.24-168.992-42.24s5.664-17.152 11.936-37.216l-180.928-38.080v75.296c0 3.392 0.256 6.752 0.672 10.048 0.064 0.96 0.32 1.92 0.416 2.848 0.416 2.432 0.832 4.8 1.44 7.104 0.192 0.992 0.512 1.92 0.672 2.848 0.768 2.624 1.632 5.216 2.592 7.776 0.224 0.448 0.384 0.928 0.512 1.344 1.344 3.136 2.752 6.176 4.448 9.152 0.064 0.128 0.16 0.224 0.256 0.416 1.536 2.688 3.264 5.344 5.088 7.84 0.288 0.416 0.608 0.8 0.896 1.216 1.824 2.464 3.712 4.704 5.792 6.976 0.224 0.128 0.384 0.352 0.512 0.544 4.768 4.96 10.016 9.344 15.84 13.088 0 0 0 0 0.064 0l0.064 0.032c2.784 1.792 5.728 3.392 8.672 4.8 0.64 0.288 1.12 0.576 1.696 0.768 3.072 1.408 6.144 2.656 9.408 3.712 0.096 0 0.192 0.064 0.32 0.064 84.992 38.528 179.296 60.16 278.72 60.16 99.328 0 193.632-21.568 278.528-60.096 3.456-1.056 6.752-2.4 9.984-3.872 0.512-0.224 0.96-0.48 1.472-0.736 9.344-4.48 17.728-10.624 24.768-18.048 0.192-0.192 0.416-0.416 0.576-0.64 2.080-2.176 3.936-4.448 5.728-6.848 0.384-0.416 0.672-0.832 0.96-1.28 1.792-2.528 3.456-5.088 5.024-7.808 0.096-0.128 0.224-0.288 0.32-0.48 1.664-2.88 3.040-5.856 4.32-8.992 0.192-0.512 0.352-1.024 0.544-1.568 0.96-2.464 1.824-4.96 2.528-7.552 0.32-0.928 0.512-1.92 0.736-2.912 0.576-2.272 1.024-4.608 1.376-7.040 0.16-0.928 0.32-1.888 0.48-2.848 0.352-3.296 0.64-6.656 0.64-10.048v-75.328l-181.088 38.144z" />
<glyph unicode="&#xe711;" glyph-name="exit" d="M503.872 854.761c-229.696-4.512-412.256-194.336-407.808-424.064 4.512-229.696 194.336-412.256 424.096-407.744 229.696 4.512 412.288 194.368 407.744 424.032-4.512 229.696-194.4 412.288-424.032 407.776zM668.736 227.497c0-26.592-21.408-48.192-48.192-48.192h-277.056c-26.56 0-48.192 21.6-48.192 48.192v410.080c0 26.56 21.632 48.192 48.192 48.192h277.056c26.784 0 48.192-21.632 48.192-48.192v-80.48h-48.192v80.48h-277.056v-410.080h277.056v80.48h48.192v-80.48zM720.224 343.049c-2.304-1.824-5.696-2.272-8.288-0.992-2.624 1.312-4.416 3.872-4.224 6.976v46.368h-190.816c-4.448 0-7.84 3.424-7.84 7.584v54.688c0 4.416 3.616 7.808 8.032 7.808h190.624v47.936c0 3.104 1.376 5.952 4.224 7.264s5.984 0.992 8.288-1.024l105.472-83.36c1.92-1.536 2.912-3.648 2.912-6.016 0-2.336-1.28-4.672-3.168-6.208l-105.216-81.024z" />
<glyph unicode="&#xe712;" glyph-name="email" d="M306.72 541.833v-196.512l131.040 93.6zM550.048 420.137c0 0-18.752-18.688-46.784-18.688-28.064 0-46.752 18.688-46.752 18.688l-131.072-102.944h357.664l-1.856 3.552-131.2 99.392zM503.264 438.921c9.344 0 18.688 9.344 18.688 9.344l149.792 112.32h-336.928l149.728-112.32c0-0.032 9.344-9.344 18.72-9.344zM503.84 854.793c-229.696-4.512-412.256-194.368-407.776-424.064 4.512-229.696 194.368-412.256 424.064-407.808 229.696 4.512 412.288 194.4 407.776 424.096s-194.4 412.256-424.064 407.776zM737.28 335.945c0-28.096-18.72-56.16-46.816-56.16h-374.336c-18.272 0-46.848 28.064-46.848 56.16v223.424c0 18.24 24.096 38.592 42.272 38.592h399.296c18.272 0 26.4-20.352 26.4-38.592v-223.424zM699.808 345.321v196.512l-130.976-102.912z" />
<glyph unicode="&#xe713;" glyph-name="chat" d="M503.872 854.793c-229.696-4.576-412.256-194.464-407.808-424.096 4.576-229.728 194.336-412.256 424.096-407.744 229.696 4.48 412.288 194.336 407.744 424.064-4.512 229.664-194.4 412.224-424.032 407.776zM802.272 488.649v-199.328c0-13.696-11.168-24.864-24.896-24.864h-69.728l-74.24-46.4c-5.6-2.208-11.648-3.488-18.016-3.488-27.552 0-49.888 22.336-49.888 49.888h-49.792c-13.76 0-24.928 11.168-24.928 24.864v49.824h-12.448v-12.48c0-27.52-22.272-49.856-49.824-49.856-6.368 0-12.416 1.344-18.048 3.52l-15.456 9.696-78.624 49.12h-62.272c-27.456 0-49.824 22.304-49.824 49.824v224.256c0 27.488 22.336 49.856 49.824 49.856h286.528c27.552 0 49.856-22.336 49.856-49.856v-74.752h186.88c13.76 0 24.896-11.136 24.896-24.896v-24.928zM540.64 413.929v199.296h-286.528v-224.224h74.784l99.648-62.272v62.272h112.096v24.928zM391.168 438.825h-74.752v53.312c0 37.952 4.448 83.744 49.824 83.744v-24.928c-24.928 0-24.928-37.344-24.928-49.824h49.888v-62.304zM478.368 438.825h-74.752v53.312c0 37.952 4.448 83.744 49.824 83.744v-24.928c-24.864 0-24.864-37.344-24.864-49.824h49.824v-62.304zM590.496 488.649v-99.68c0-27.52-22.272-49.824-49.856-49.824v-24.928h74.784v-49.792l79.744 49.792h57.248v174.4h-161.92z" />
<glyph unicode="&#xe714;" glyph-name="phone2" d="M705.248 401.673l222.752-46.848v92.736c0 4.16-0.384 8.288-0.8 12.352-0.16 1.216-0.384 2.4-0.544 3.552-0.448 2.944-1.056 5.824-1.664 8.64-0.352 1.248-0.608 2.432-0.96 3.616-0.928 3.136-1.952 6.24-3.168 9.312-0.256 0.672-0.416 1.248-0.704 1.952-1.536 3.84-3.296 7.52-5.28 11.040-0.096 0.224-0.256 0.416-0.352 0.608-1.888 3.264-4 6.496-6.176 9.632-0.416 0.48-0.768 1.024-1.216 1.536-2.176 2.944-4.48 5.76-7.040 8.448-0.16 0.256-0.448 0.512-0.704 0.736-8.672 9.184-19.008 16.736-30.464 22.24-0.608 0.32-1.184 0.608-1.792 0.896-3.968 1.76-8.032 3.392-12.288 4.736-104.512 47.392-220.544 74.016-342.848 74.016s-238.4-26.656-343.008-74.080c-0.16-0.064-0.256-0.064-0.416-0.096-3.936-1.28-7.808-2.848-11.52-4.576-0.704-0.288-1.344-0.576-2.016-0.928-3.712-1.824-7.328-3.776-10.72-6.016-0.064 0-0.128 0-0.128 0h-0.096c-7.104-4.576-13.6-9.952-19.456-16.096-0.16-0.224-0.384-0.448-0.576-0.672-2.592-2.752-4.928-5.536-7.2-8.608-0.384-0.48-0.8-0.896-1.088-1.44-2.272-3.104-4.416-6.368-6.304-9.696-0.096-0.16-0.192-0.352-0.32-0.512-2.016-3.616-3.808-7.36-5.408-11.2-0.192-0.544-0.384-1.152-0.64-1.664-1.184-3.2-2.304-6.336-3.168-9.6-0.288-1.184-0.704-2.272-0.864-3.488-0.704-2.848-1.28-5.824-1.792-8.736-0.128-1.184-0.384-2.368-0.544-3.552-0.416-4.096-0.736-8.224-0.736-12.384v-92.736l222.656 46.88c-7.68 24.768-14.624 45.856-14.624 45.856s86.624 52 207.904 52c121.408 0 208.032-52 208.032-52s-7.040-21.056-14.72-45.856zM96 319.401v-27.808c0-19.232 15.488-34.688 34.688-34.688 4.672 0 173.344 34.688 173.344 34.688 17.6 4 34.624 17.312 34.624 34.656 0 6.048-4.352 22.944-9.888 42.208l-232.768-49.056zM695.2 368.393c-5.536-19.232-9.888-36.128-9.888-42.208 0-19.168 17.6-31.168 34.688-34.656 0 0 168.576-34.688 173.376-34.688 19.104 0 34.656 15.456 34.656 34.688v27.808l-232.832 49.056z" />
<glyph unicode="&#xe715;" glyph-name="add" d="M512 854.857c-229.76 0-416-186.272-416-416 0-229.76 186.24-416 416-416 229.792 0 416 186.24 416 416 0 229.728-186.208 416-416 416zM713.728 416.713c0-13.344-7.040-19.648-19.648-19.648h-147.36v-149.504c0-13.344-7.040-19.648-19.712-19.648h-30.848c-13.312 0-19.68 7.040-19.68 19.648v149.504h-146.624c-13.376 0-19.648 7.040-19.648 19.648v29.44c0 13.376 7.040 19.68 19.648 19.68h146.624v139.648c0 12.64 6.368 19.616 19.68 19.616h30.848c13.408 0 19.712-6.976 19.712-19.616v-139.648h147.36c12.64 0 19.648-6.336 19.648-19.68v-29.44z" />
<glyph unicode="&#xe716;" glyph-name="plus" d="M928 502.857h-352v352h-128v-352h-352v-128h352v-352h128v352h352z" />
<glyph unicode="&#xe717;" glyph-name="minus" d="M96 507.369h832v-136.992h-832v136.992z" />
<glyph unicode="&#xe718;" glyph-name="channels" d="M858.656 716.201h-693.344c-38.24 0-69.312-31.040-69.312-69.344v-346.656c0-38.336 31.072-69.344 69.312-69.344h242.688v-34.656h-104c-9.6 0-17.312-7.776-17.312-17.344 0-9.6 7.712-17.344 17.312-17.344h416c9.6 0 17.312 7.744 17.312 17.344 0 9.568-7.712 17.344-17.312 17.344h-104v34.656h242.656c38.304 0 69.344 31.008 69.344 69.344v346.656c0 38.304-31.040 69.344-69.344 69.344zM858.656 300.201h-693.344v346.656h693.344v-346.656zM237.536 585.577h124.256v-75.136h-124.256v75.136zM449.888 585.577h124.256v-75.136h-124.256v75.136zM662.208 585.577h124.256v-75.136h-124.256v75.136zM237.536 455.593h124.256v-75.136h-124.256v75.136zM449.888 455.593h124.256v-75.136h-124.256v75.136zM662.208 455.593h124.256v-75.136h-124.256v75.136z" />
<glyph unicode="&#xe719;" glyph-name="list" d="M787.488 145.385h-550.976c-77.472 0-140.512 63.040-140.512 140.512v305.92c0 77.472 63.040 140.512 140.512 140.512h551.008c77.44 0 140.48-63.040 140.48-140.512v-305.92c0-77.472-63.040-140.512-140.512-140.512zM236.512 697.737c-58.368 0-105.888-47.52-105.888-105.92v-305.92c0-58.432 47.52-105.92 105.888-105.92h551.008c58.368 0 105.888 47.488 105.888 105.92v305.92c0 58.4-47.52 105.92-105.888 105.92h-551.008zM312.224 312.169h-40.384c-22.304 0-40.416-18.112-40.416-40.416s18.080-40.384 40.416-40.384h40.384c22.304 0 40.416 18.080 40.416 40.384-0.032 22.304-18.112 40.416-40.416 40.416zM312.224 473.705h-40.384c-22.304 0-40.416-18.080-40.416-40.384s18.080-40.384 40.416-40.384h40.384c22.304 0 40.416 18.080 40.416 40.384-0.032 22.304-18.112 40.384-40.416 40.384zM312.224 635.273h-40.384c-22.304 0-40.416-18.080-40.416-40.416 0-22.272 18.080-40.384 40.416-40.384h40.384c22.304 0 40.416 18.112 40.416 40.384-0.032 22.336-18.112 40.416-40.416 40.416zM473.76 554.473h282.752c22.304 0 40.384 18.112 40.384 40.384 0 22.336-18.048 40.416-40.384 40.416h-282.752c-22.272 0-40.384-18.080-40.384-40.416 0-22.272 18.080-40.384 40.384-40.384zM756.512 473.705h-282.752c-22.272 0-40.384-18.080-40.384-40.384s18.080-40.384 40.384-40.384h282.752c22.304 0 40.384 18.080 40.384 40.384-0.032 22.304-18.080 40.384-40.384 40.384zM756.512 312.169h-282.752c-22.272 0-40.384-18.112-40.384-40.416s18.080-40.384 40.384-40.384h282.752c22.304 0 40.384 18.080 40.384 40.384-0.032 22.304-18.080 40.416-40.384 40.416z" />
<glyph unicode="&#xe71a;" glyph-name="remote" d="M605.536 854.857h-187.072c-50.048 0-90.816-40.192-90.816-89.568v-652.832c0-49.376 40.736-89.568 90.816-89.568h187.072c50.048 0 90.816 40.192 90.816 89.568v652.832c0 49.376-40.768 89.568-90.816 89.568zM663.52 112.425c0-31.296-26.048-56.768-58.016-56.768h-187.072c-31.968 0-58.016 25.472-58.016 56.768v652.864c0 31.296 26.048 56.768 58.016 56.768h187.072c31.968 0 58.016-25.472 58.016-56.768v-652.864zM623.392 751.945c0-17.231-14.198-31.2-31.712-31.2s-31.712 13.969-31.712 31.2c0 17.231 14.198 31.2 31.712 31.2s31.712-13.969 31.712-31.2zM633.696 542.793c0-17.231-14.184-31.2-31.68-31.2s-31.68 13.969-31.68 31.2c0 17.231 14.184 31.2 31.68 31.2s31.68-13.969 31.68-31.2zM633.696 435.305c0-17.214-14.184-31.168-31.68-31.168s-31.68 13.954-31.68 31.168c0 17.214 14.184 31.168 31.68 31.168s31.68-13.954 31.68-31.168zM633.696 327.785c0-17.214-14.184-31.168-31.68-31.168s-31.68 13.954-31.68 31.168c0 17.214 14.184 31.168 31.68 31.168s31.68-13.954 31.68-31.168zM633.696 220.297c0-17.214-14.184-31.168-31.68-31.168s-31.68 13.954-31.68 31.168c0 17.214 14.184 31.168 31.68 31.168s31.68-13.954 31.68-31.168zM539.744 542.793c0-17.231-14.184-31.2-31.68-31.2s-31.68 13.969-31.68 31.2c0 17.231 14.184 31.2 31.68 31.2s31.68-13.969 31.68-31.2zM539.744 435.305c0-17.214-14.184-31.168-31.68-31.168s-31.68 13.954-31.68 31.168c0 17.214 14.184 31.168 31.68 31.168s31.68-13.954 31.68-31.168zM539.744 327.785c0-17.214-14.184-31.168-31.68-31.168s-31.68 13.954-31.68 31.168c0 17.214 14.184 31.168 31.68 31.168s31.68-13.954 31.68-31.168zM539.744 220.297c0-17.214-14.184-31.168-31.68-31.168s-31.68 13.954-31.68 31.168c0 17.214 14.184 31.168 31.68 31.168s31.68-13.954 31.68-31.168zM445.824 542.793c0-17.231-14.198-31.2-31.712-31.2s-31.712 13.969-31.712 31.2c0 17.231 14.198 31.2 31.712 31.2s31.712-13.969 31.712-31.2zM445.824 435.305c0-17.214-14.198-31.168-31.712-31.168s-31.712 13.954-31.712 31.168c0 17.214 14.198 31.168 31.712 31.168s31.712-13.954 31.712-31.168zM445.824 327.785c0-17.214-14.198-31.168-31.712-31.168s-31.712 13.954-31.712 31.168c0 17.214 14.198 31.168 31.712 31.168s31.712-13.954 31.712-31.168zM445.824 220.297c0-17.214-14.198-31.168-31.712-31.168s-31.712 13.954-31.712 31.168c0 17.214 14.198 31.168 31.712 31.168s31.712-13.954 31.712-31.168z" />
<glyph unicode="&#xe71b;" glyph-name="calendar" d="M96.736 740.841h151.008v-151.008h-151.008v151.008zM323.264 740.841h151.008v-151.008h-151.008v151.008zM549.76 740.841h151.008v-151.008h-151.008v151.008zM776.256 740.841h151.008v-151.008h-151.008v151.008zM96.736 514.345h151.008v-151.008h-151.008v151.008zM323.264 514.345h151.008v-151.008h-151.008v151.008zM549.76 514.345h151.008v-151.008h-151.008v151.008zM776.256 514.345h151.008v-151.008h-151.008v151.008zM96.736 287.849h151.008v-151.008h-151.008v151.008zM323.264 287.849h151.008v-151.008h-151.008v151.008zM549.76 287.849h151.008v-151.008h-151.008v151.008zM776.256 287.849h151.008v-151.008h-151.008v151.008z" />
<glyph unicode="&#xe71c;" glyph-name="vm" d="M743.808 624.681c-101.728 0-184.192-84.032-184.192-185.792 0-42.496 14.368-77.28 38.528-114.368h-172.32c24.192 37.088 38.56 71.872 38.56 114.368 0 101.728-82.464 184.992-184.192 184.992s-184.192-82.048-184.192-183.776c0-101.76 82.432-187.072 184.192-187.072 1.888 0 3.744 0.064 5.632 0.064h452.32c1.888 0 3.776 0.16 5.664 0.16 101.728 0 184.224 83.968 184.224 185.696-0.032 101.76-82.528 185.728-184.224 185.728zM168.16 440.489c0 61.856 50.144 112 112.032 112s112-50.144 112-112c0-61.888-50.112-112-112-112-61.856-0.032-112.032 50.112-112.032 112zM743.808 328.457c-61.856 0-111.968 50.144-111.968 112s50.112 112 111.968 112c61.856 0 112.032-50.144 112.032-112s-50.208-112-112.032-112z" />
<glyph unicode="&#xe71d;" glyph-name="data" d="M384.832 135.913l289.056-113.056-30.624 318.624-81.888-65.12-185.568 233.088-107.136-85.216 185.568-233.088-69.408-55.232zM502.272 637.097l160.448-201.504 92.608 73.664-160.48 201.6 70.88 56.32-262.656 87.68 39.264-265.376 59.936 47.616z" />
<glyph unicode="&#xe71e;" glyph-name="call" d="M361.504 270.281l-68.384-9.344c-28.352 3.328-34.752 37.76-41.568 106.336l0.224 164.992c4.32 39.744 11.84 78.208 42.656 80.544l68.128-5.376 0.096 0.064c15.712-0.032 26.848 12.64 26.912 26.848v0.064l0.384 193.664c0.128 15.104-12.032 26.848-26.752 26.784l-68.224-6.816c-41.696-6.464-176.032-73.664-180.288-396.992-4.64-335.488 133.568-415.392 178.048-419.904l68.128-8.288c15.744 0.064 26.88 12.672 26.944 26.848l0.064 0.032 0.352 193.728c0.16 14.976-12.032 26.752-26.72 26.816zM715.232 312.681c0 0-44.832-3.168-115.456 78.784 0 0-26.368 35.264-51.68 49.856 25.312 14.56 51.68 49.824 51.68 49.824 75.328 87.84 115.456 78.816 115.456 78.816v-72.416l194.208 119.232-194.208 119.264v-80.224c0 0-106.912-11.328-164.288-93.312 0 0-52.672-83.104-141.632-83.104-87.424 0-99.904-0.608-99.904-0.608v-75.52c0 0 12.48-0.128 99.904-0.128 85.44 0 140.48-85.824 140.48-85.824 68.672-85.12 165.44-90.56 165.44-90.56v-80.192l194.208 119.296-194.208 119.264v-72.448z" />
<glyph unicode="&#xe71f;" glyph-name="blocked" d="M703.84 298.857l-73.28 86.656c-5.696 6.72-15.552 7.392-22.144 1.856l-27.008-30.112c-11.2-7.488-23.68-0.544-43.328 17.152l-55.648-56.256c97.888-90.4 167.584-76.416 186.016-63.712l33.568 22.144c7.008 5.984 7.232 15.84 1.856 22.24v0.032zM482.88 560.649l-73.28 86.688c-5.632 6.752-15.552 7.424-22.112 1.824l-27.872-28.96c-14.336-16.576-43.072-82.24 35.008-198.848l56.192 56.224c-8.032 14.336-11.776 27.872-2.208 37.376l32.512 23.392v0.064c7.040 5.952 7.2 15.84 1.856 22.176l-0.096 0.064zM511.968 854.857c-229.376 0-415.936-186.624-415.968-416 0-229.408 186.592-416 415.968-416 229.44 0 416.032 186.592 416.032 416 0 229.376-186.592 416-416.032 416zM171.616 438.857c0 187.648 152.704 340.384 340.416 340.384 80.352 0 154.208-28.096 212.512-74.816l-478.080-478.080c-46.784 58.272-74.848 132.16-74.848 212.512zM512.032 98.505c-80.416 0-154.336 28.032-212.64 74.816l478.112 478.144c46.816-58.336 74.88-132.224 74.88-212.608 0-187.68-152.704-340.352-340.352-340.352z" />
<glyph unicode="&#xe720;" glyph-name="location" d="M512 854.857c-145.92 0-264.192-118.272-264.192-264.192 0-145.888 264.192-567.808 264.192-567.808s264.192 421.92 264.192 567.808c0 145.92-118.272 264.192-264.192 264.192zM512 470.601c-66.304 0-120.096 53.76-120.096 120.064s53.76 120.096 120.096 120.096c66.304 0 120.064-53.76 120.064-120.096 0-66.304-53.76-120.064-120.064-120.064z" />
<glyph unicode="&#xe721;" glyph-name="cart" d="M476 139.593c0-38.192-30.96-69.152-69.152-69.152s-69.152 30.96-69.152 69.152c0 38.192 30.96 69.152 69.152 69.152s69.152-30.96 69.152-69.152zM777.824 139.593c0-38.192-30.96-69.152-69.152-69.152s-69.152 30.96-69.152 69.152c0 38.192 30.96 69.152 69.152 69.152s69.152-30.96 69.152-69.152zM884.8 587.817c-88.32 0-426.848 0-426.848 0s-25.248-5.728-25.248-33.44c0-27.776 25.248-35.84 25.248-35.84h382.72l-21.504-72.768c-104.768 0-376.16 0-376.16 0s-23.488-5.312-23.488-31.104c0-25.92 23.488-33.44 23.488-33.44h357.12l-20.192-68.064h-388.384l-25.792 205.408-8.384 69.248c0 0-7.488 64-11.744 90.4-4.192 26.56-70.56 59.776-213.216 127.008-33.536 14.080-61.6-47.296 0-79.424l112.48-52.544c0 0 26.176-15.2 28.416-35.584 2.24-20.48 47.904-358.848 47.904-358.848s1.824-47.104 44.608-47.104c42.752 0 393.408 0 429.216 0 35.936 0 42.912 37.536 42.912 37.536l85.056 252.64c0.032 0 25.28 65.92-38.208 65.92z" />
<glyph unicode="&#xe722;" glyph-name="webmail" d="M824 750.857h-624c-57.44 0-104-46.56-104-104v-416c0-57.44 46.56-104 104-104h624c57.408 0 104 46.56 104 104v416c0 57.44-46.56 104-104 104zM652.832 473.353l220.16 188.64c1.536-4.896 3.040-9.76 3.040-15.136v-416c0-3.616-1.376-6.816-2.080-10.208l-221.12 252.704zM824 698.857c3.456 0 6.496-1.312 9.728-1.984l-321.728-275.776-321.76 275.776c3.264 0.672 6.304 1.984 9.76 1.984h624zM150.048 220.713c-0.704 3.392-2.048 6.56-2.048 10.144v416c0 5.376 1.568 10.24 3.072 15.136l220.064-188.608-221.088-252.672zM200 178.857c-5.248 0-10.048 1.504-14.848 2.976l225.472 257.664 84.448-72.352c4.864-4.224 10.88-6.304 16.896-6.304s12.064 2.080 16.896 6.304l84.448 72.352 225.472-257.664c-4.768-1.472-9.568-2.976-14.816-2.976h-623.968z" />
<glyph unicode="&#xe723;" glyph-name="contact" d="M800 790.857h-576c-70.592 0-128-58.4-128-128.992v-288c0-70.592 57.408-127.008 128-127.008h370.464l188.032-123.296c5.312-3.456 11.392-5.472 17.504-5.472 5.216 0 10.464 1.152 15.232 3.712 10.336 5.632 16.768 16.32 16.768 28.064v100.064c55.168 14.208 96 64.416 96 123.936v288c0 70.592-57.408 128.992-128 128.992zM864 373.865c0-35.296-28.704-64-64-64-17.696 0-32-14.304-32-32v-68.864l-146.496 96.16c-5.216 3.392-11.296 5.696-17.504 5.696h-380c-35.296 0-64 27.712-64 63.008v288c0 35.264 28.704 64.992 64 64.992h576c35.296 0 64-29.728 64-64.992v-288z" />
<glyph unicode="&#xe724;" glyph-name="logo" d="M350.656 502.313c-10.976 0-28.224-3.168-41.184-11.776 0 0 0 46.816 0 55.872 0 5.44-2.976 8.032-7.872 8.032h-29.152c-4.896 0-8-2.592-8-8.032 0-41.152 0-188.736 0-188.736 0-5.344 2.816-7.968 8-7.968h29.056c5.312 0 7.968 2.784 7.968 7.968v91.488c0 10.752 13.44 17.536 27.84 17.536 9.024 0 15.712-2.016 19.712-5.984 3.52-3.488 5.216-8.704 5.216-15.552v-87.52c0-5.344 2.816-7.968 7.968-7.968h29.056c5.312 0 8 2.784 8 7.968v87.296c0.096 40.16-24.256 57.376-56.608 57.376zM184.032 472.329c-32.96 10.528-38.176 16.928-38.176 27.744 0 10.784 10.496 16.384 28.352 16.384 16.8 0 39.584-5.44 47.232-7.104 5.92-1.28 8.736 1.952 8.736 6.464v19.968c0 4.192-1.44 8-7.712 10.112-14.016 4.704-31.296 7.616-53.504 7.328-33.696-0.448-69.056-14.976-69.056-56.48 0-30.88 18.848-48.448 59.776-61.12 29.6-9.152 39.296-17.888 39.264-29.792-0.032-12.544-11.008-19.52-35.296-19.52-25.376 0-49.12 9.824-58.688 12.192-5.952 1.44-8.96-1.344-8.96-6.080v-22.848c0-6.304 4.544-8.96 9.088-10.688 1.088-0.416 26.592-10.816 58.624-10.816h0.416c54.144 0.096 80.416 22.56 80.576 60 0.16 40.928-26.272 53.28-60.672 64.256zM843.040 578.889c-2.016 1.056-4.96 2.464-7.552 2.464-4.32 0-6.656-2.656-6.656-7.52v-29.952c0-3.84 1.28-6.112 3.776-7.968 0 0 0.768-0.576 2.208-1.504 32.192-21.376 51.424-54.56 51.424-95.552 0-41.024-19.232-74.208-51.424-95.584-1.472-0.992-2.208-1.536-2.208-1.536-2.528-1.856-3.776-4.128-3.776-7.968v-29.952c0-4.864 2.336-7.52 6.656-7.52 2.592 0 5.504 1.408 7.552 2.464 49.536 26.144 84.832 77.312 84.96 140.096-0.128 62.784-35.424 113.952-84.96 140.032zM494.56 502.377c-15.584 0-32.416-2.592-44.512-6.272-4.576-1.44-7.584-4.32-7.584-9.952v-17.792c-0.064-4.16 2.656-7.552 10.080-5.856 8.704 2.016 24.384 5.28 38.944 5.28 19.136 0 29.344-8.928 29.344-22.656v-5.12c-9.408 2.208-18.624 3.648-29.76 3.648-39.84 0-64.608-17.984-64.608-50.432 0-27.872 21.12-47.904 63.36-47.904h0.416c3.648 0.032 4.928 0.032 8 0.032 22.784 0 49.152 6.816 56.608 8.832 2.912 0.8 8.288 2.304 8.288 8.768v74.56c0.096 24.512-4.32 38.112-14.944 48.512-10.208 10.016-27.84 16.352-53.632 16.352zM520.832 382.537c-2.432-0.704-13.792-3.776-26.112-3.776-17.216 0-25.664 6.976-25.664 17.344 0 10.496 7.424 18.784 29.408 18.784 9.12 0 17.408-1.632 22.368-3.584v-28.768zM789.312 497.769h-26.112c-5.312 0-8.032-2.816-8.032-8v-86.592c0-9.664-5.632-19.456-21.696-19.456-10.624 0-20.608 4.864-20.608 14.368v91.68c0 5.376-2.816 8-8 8h-26.112c-5.28 0-8-2.816-8-8v-91.68c0-10.24-10.336-14.368-21.472-14.368-15.936 0-20.704 9.376-20.704 19.456v86.592c0 5.376-2.784 8-7.968 8h-26.112c-5.312 0-8-2.816-8-8v-89.92c0-33.952 24.544-52.64 60.128-52.64 22.528 0 37.472 8.192 45.184 13.856 7.872-5.696 21.952-14.016 43.392-14.016 35.616 0 62.112 14.72 62.112 52.8 0 40.32 0 89.92 0 89.92 0 5.376-2.816 8-8 8z" />
<glyph unicode="&#xe725;" glyph-name="search" d="M914.944 99.049l-203.168 203.168c44.64 57.984 71.488 130.336 71.488 208.992 0.032 189.504-154.144 343.648-343.616 343.648-189.504 0-343.648-154.144-343.648-343.648 0-189.472 154.144-343.616 343.648-343.616 78.688 0 151.040 26.88 209.024 71.52l203.104-203.104c8.448-8.512 19.68-13.152 31.616-13.152 11.904 0 23.136 4.64 31.552 13.088 17.408 17.376 17.408 45.696 0 63.104zM155.968 511.209c0 156.448 127.264 283.68 283.68 283.68s283.648-127.264 283.648-283.68c0-156.416-127.264-283.648-283.648-283.648-156.448-0.032-283.68 127.232-283.68 283.648z" />
<glyph unicode="&#xe726;" glyph-name="gladiator" d="M503.84 854.761c-229.696-4.512-412.256-194.336-407.744-424.064 4.512-229.696 194.336-412.256 424.064-407.744 229.696 4.512 412.288 194.368 407.744 424.064-4.512 229.696-194.368 412.256-424.064 407.744zM802.24 463.785v-124.608c0-27.552-22.336-49.856-49.856-49.856h-174.368v-24.896h74.72c6.912 0 12.48-5.6 12.48-12.448 0-6.912-5.568-12.512-12.48-12.512h-298.976c-6.88 0-12.448 5.6-12.448 12.512 0 6.848 5.568 12.448 12.448 12.448h74.752v24.896h-174.4c-27.52 0-49.856 22.272-49.856 49.856v249.184c0 27.52 22.304 49.856 49.856 49.856h498.272c27.488 0 49.856-22.304 49.856-49.856v-124.576zM361.856 490.473c-5.088 0-13.056-1.472-19.072-5.472 0 0 0 21.664 0 25.856 0 2.528-1.376 3.712-3.648 3.712h-13.504c-2.272 0-3.712-1.216-3.712-3.712 0-19.040 0-87.36 0-87.36 0-2.496 1.312-3.68 3.712-3.68h13.44c2.464 0 3.68 1.28 3.68 3.68v42.336c0 4.96 6.208 8.128 12.896 8.128 4.192 0 7.264-0.928 9.12-2.784 1.632-1.6 2.432-4.032 2.4-7.2v-40.512c0-2.496 1.312-3.68 3.68-3.68h13.44c2.464 0 3.68 1.28 3.68 3.68v40.384c0.16 18.656-11.136 26.624-26.112 26.624zM284.736 476.585c-15.264 4.864-17.664 7.84-17.664 12.864 0 4.992 4.864 7.584 13.12 7.584 7.776 0 18.304-2.528 21.856-3.296 2.752-0.608 4.032 0.896 4.032 2.976v9.248c0 1.952-0.672 3.712-3.552 4.672-6.496 2.176-14.496 3.52-24.768 3.392-15.616-0.224-31.968-6.944-31.968-26.144 0-14.304 8.704-22.432 27.68-28.288 13.696-4.256 18.176-8.288 18.176-13.792 0-5.792-5.088-9.024-16.352-9.024-11.744 0-22.72 4.544-27.168 5.632-2.752 0.672-4.16-0.608-4.16-2.784v-10.592c0-2.912 2.112-4.128 4.192-4.96 0.512-0.192 12.288-4.992 27.136-4.992h0.224c25.056 0.032 37.216 10.432 37.28 27.776 0.096 18.944-12.128 24.672-28.064 29.728zM589.76 525.929c-0.928 0.48-2.304 1.152-3.488 1.152-1.984 0-3.072-1.216-3.072-3.488v-13.856c0-1.792 0.576-2.848 1.76-3.68 0 0 0.352-0.256 1.024-0.704 14.88-9.888 23.808-25.248 23.808-44.224s-8.896-34.336-23.808-44.224c-0.672-0.448-1.024-0.704-1.024-0.704-1.152-0.864-1.76-1.92-1.76-3.68v-13.856c0-2.24 1.088-3.488 3.072-3.488 1.184 0 2.56 0.64 3.488 1.152 22.944 12.096 39.264 35.744 39.328 64.832-0.064 28.992-16.384 52.672-39.328 64.768zM428.48 490.505c-7.2 0-15.008-1.184-20.608-2.912-2.112-0.672-3.52-1.984-3.52-4.608v-8.224c-0.032-1.92 1.216-3.488 4.672-2.72 4.032 0.928 11.296 2.464 18.016 2.464 8.864 0 13.568-4.128 13.568-10.496v-2.368c-4.352 1.024-8.608 1.696-13.792 1.696-18.432 0-29.92-8.32-29.92-23.36 0-12.896 9.76-22.176 29.312-22.176h0.192c1.696 0 2.272 0.032 3.712 0.032 10.56 0 22.752 3.136 26.208 4.096 1.344 0.352 3.84 1.056 3.84 4.064v34.528c0.032 11.36-1.984 17.632-6.912 22.432-4.672 4.608-12.832 7.552-24.768 7.552zM440.64 435.017c-1.12-0.32-6.368-1.76-12.096-1.76-7.968 0-11.872 3.232-11.872 8.032 0 4.864 3.424 8.704 13.6 8.704 4.224 0 8.064-0.768 10.368-1.664v-13.312zM564.896 488.361h-12.096c-2.464 0-3.712-1.312-3.712-3.712v-40.064c0-4.48-2.624-8.992-10.048-8.992-4.928 0-9.536 2.24-9.536 6.656v42.432c0 2.496-1.312 3.712-3.712 3.712h-12.096c-2.464 0-3.712-1.312-3.712-3.712v-42.432c0-4.736-4.8-6.656-9.952-6.656-7.36 0-9.568 4.352-9.568 8.992v40.064c0 2.496-1.28 3.712-3.68 3.712h-12.096c-2.464 0-3.712-1.312-3.712-3.712v-41.632c0-15.712 11.36-24.352 27.84-24.352 10.432 0 17.344 3.776 20.928 6.4 3.648-2.624 10.144-6.496 20.096-6.496 16.48 0 28.768 6.816 28.768 24.448 0 18.656 0 41.632 0 41.632 0 2.496-1.312 3.712-3.712 3.712zM711.648 398.249c-32.352 0-58.656 26.304-58.656 58.656 0 4.672 0.64 9.44 1.856 14.144-10.784 7.168-17.44 19.328-17.44 32.608 0 21.6 17.6 39.2 39.2 39.2 17.056 0 31.744-11.328 36.8-27.328 31.52-0.928 56.896-26.88 56.896-58.624 0-32.32-26.304-58.656-58.656-58.656zM676.608 526.857c-12.768 0-23.2-10.4-23.2-23.2 0-9.344 5.568-17.728 14.144-21.344l7.168-3.008-2.784-7.264c-1.952-5.056-2.944-10.176-2.944-15.168 0-23.52 19.136-42.656 42.656-42.656s42.656 19.136 42.656 42.656-19.136 42.656-42.656 42.656l-3.776-0.448-7.872-0.768-0.864 7.84c-1.376 11.84-11.040 20.704-22.528 20.704zM728.64 457.353c-0.224-1.408-0.928-1.984-2.432-1.984h-25.6c0.8-5.824 4.96-8.672 11.744-8.672 3.936 0 8.128 0.96 10.496 1.664 2.048 0.64 2.848-0.32 2.752-1.408v-4.8c0-1.568-0.768-2.432-2.048-2.912-3.136-1.184-8.032-1.984-12.672-1.984-13.728 0-22.528 7.168-22.528 21.28 0 13.152 7.552 21.76 20.96 21.76 11.424 0 19.616-6.784 19.616-18.528-0.064-1.408-0.064-2.912-0.288-4.416zM700.64 463.113h16.544c0 4.896-3.008 8.416-7.968 8.416-5.568 0.032-8.096-3.904-8.576-8.416z" />
<glyph unicode="&#xe727;" glyph-name="collapse" d="M512.032 671.401v0c12.992 0 25.504-5.152 34.688-14.368l366.912-366.976c19.168-19.168 19.168-50.208 0-69.376s-50.208-19.168-69.376 0l-332.224 332.288-332.288-332.288c-19.168-19.168-50.208-19.168-69.376 0s-19.168 50.208 0 69.376l366.976 366.976c9.216 9.216 21.696 14.368 34.688 14.368z" />
<glyph unicode="&#xe728;" glyph-name="lock" d="M720 490.857v156c0 114.688-93.312 208-208 208s-208-93.312-208-208v-156c-43.008 0-78.016-35.008-78.016-77.984v-312c0-43.040 35.008-78.016 78.016-78.016h416c43.008 0 78.016 34.976 78.016 78.016v312c0 42.976-35.008 77.984-78.016 77.984zM356 646.857c0 86.048 69.984 156 156 156s156-69.952 156-156v-156h-312v156zM745.984 100.873c0-14.336-11.68-26.016-25.984-26.016h-416c-14.336 0-25.984 11.648-25.984 26.016v312c0 14.336 11.648 25.984 25.984 25.984h416c14.336 0 25.984-11.648 25.984-26.016v-311.968zM537.984 275.657v59.2c0 14.368-11.616 25.984-26.016 25.984-14.368 0-25.984-11.616-25.984-25.984v-59.2c-15.488-9.024-25.984-25.6-25.984-44.8 0-28.672 23.296-52 52-52s52 23.296 52 52c0 19.2-10.528 35.776-26.016 44.8z" />
<glyph unicode="&#xe729;" glyph-name="next" d="M744.544 438.825v0c0-12.992-5.152-25.504-14.368-34.688l-366.976-366.912c-19.168-19.168-50.208-19.168-69.376 0s-19.168 50.208 0 69.376l332.288 332.224-332.288 332.288c-19.168 19.168-19.168 50.208 0 69.376s50.208 19.168 69.376 0l366.976-366.976c9.216-9.216 14.368-21.696 14.368-34.688z" />
<glyph unicode="&#xe72a;" glyph-name="success" d="M482.464 177.897c-0.512-1.152-1.216-2.272-2.176-3.2l-47.552-47.616c-4.16-4.16-10.88-4.16-15.008 0l-292.928 292.928c-4.16 4.16-4.16 10.88 0 14.976l47.552 47.616c4.16 4.16 10.88 4.16 15.008 0l237.344-237.344 463.264 463.328c4.16 4.16 10.88 4.16 15.008 0l47.584-47.552c4.16-4.16 4.16-10.88 0-15.040l-468.096-468.096z" />
<glyph unicode="&#xe730;" glyph-name="chat2" d="M951.1 596.253h-295.243v118.083c0 43.455-35.207 78.734-78.734 78.734h-452.675c-43.382 0-78.697-35.279-78.697-78.734v-354.248c0-43.455 35.279-78.697 78.697-78.697h98.427l148.675-92.867c8.901-3.451 18.421-5.559 28.484-5.559 43.491 0 78.697 35.279 78.697 78.734v19.692h19.655v-78.734c0-21.655 17.659-39.313 39.385-39.313h78.697c0-43.528 35.243-78.807 78.807-78.807 10.028 0 19.583 2.036 28.448 5.486l117.174 73.284h110.163c21.727 0 39.349 17.659 39.349 39.313v354.284c0.036 21.763-17.622 39.349-39.313 39.349zM537.774 360.086h-137.739v-98.391l-157.432 98.391h-118.155v354.248h452.639v-354.248h-39.313zM911.678 478.17v-236.166h-90.469l-126.004-78.661v78.661h-118.155v39.385c43.528 0 78.734 35.207 78.734 78.697v157.468h255.859v-39.385zM301.608 615.945v39.385c-71.685 0-78.697-72.302-78.697-132.289v-84.221h118.083v98.427h-78.807c0 19.655 0 78.697 39.421 78.697zM439.347 615.945v39.385c-71.685 0-78.697-72.302-78.697-132.289v-84.221h118.083v98.427h-78.697c0 19.655 0 78.697 39.313 78.697z" />
<glyph unicode="&#xe731;" glyph-name="contact2" d="M987.134 415.134c-0.246 4.294-7.497 104.468-172.821 141.389 4.998 24.391 7.532 49.841 7.532 75.78 0 131.64-63.849 234.733-145.367 234.733-81.483 0-145.332-103.094-145.332-234.733 0-25.976 2.534-51.494 7.567-75.957-14.606-3.308-27.524-7.287-39.738-11.51 4.576-18.127 7.708-37.556 9.399-57.76 13.445 5.245 28.757 10.067 46.883 14.044 26.538-64.975 71.451-103.517 121.221-103.517 49.946 0 94.929 38.753 121.467 104.044 115.836-24.569 130.443-82.151 131.745-88.803v-86.481c0.105-37.239-10.383-51.775-14.889-56.282-4.329-4.329-7.567-4.47-7.884-4.47h-239.239c6.582-15.945 7.462-27.314 7.532-28.685v-28.792h231.671c17.634 0 34.881 7.603 48.573 21.331 14.571 14.606 31.853 43.259 31.713 96.97l-0.035 88.698zM678.239 454.168c-49.1 0-88.909 79.477-88.909 177.538s39.808 177.538 88.909 177.538 88.909-79.477 88.909-177.538-39.808-177.538-88.909-177.538zM483.208 359.099c4.998 24.391 7.532 49.841 7.532 75.78 0 131.64-63.849 234.733-145.367 234.733-81.483 0-145.332-103.094-145.332-234.733 0-25.976 2.534-51.494 7.567-75.957-163.74-37.239-170.568-137.905-170.78-142.692v-87.114c-0.175-53.817 17.142-82.469 31.678-97.076 13.728-13.763 30.974-21.331 48.573-21.331h458.696c17.634 0 34.881 7.603 48.573 21.331 14.571 14.606 31.853 43.259 31.713 96.97l-0.035 88.733c-0.246 4.294-7.497 104.433-172.821 141.354zM347.134 611.854c49.1 0 88.909-79.477 88.909-177.538s-39.808-177.538-88.909-177.538-88.909 79.477-88.909 177.538c-0.035 98.061 39.773 177.538 88.909 177.538zM598.586 128.906c0.105-37.239-10.383-51.775-14.889-56.282-4.329-4.329-7.567-4.47-7.884-4.47h-458.731c-0.352 0-3.59 0.105-7.884 4.399-4.505 4.576-14.995 19.113-14.889 56.387l-0.070 85.319c0.105 0.634 9.011 62.934 129.915 89.367 26.538-64.975 71.451-103.517 121.221-103.517 49.946 0 94.929 38.753 121.467 104.044 115.836-24.569 130.443-82.151 131.745-88.803v-86.445z" />
<glyph unicode="&#xe733;" glyph-name="email2" d="M502.848 38.537c-234.752 0-417.984 118.848-417.984 377.376 0 248.608 199.104 426.88 453.632 426.88 227.808 0 379.36-121.824 378.368-328.8-0.992-168.384-106.976-276.352-246.624-276.352-50.528 0-94.080 17.824-114.88 50.496-33.664-35.648-84.192-50.496-130.752-50.496-99.040 0-152.544 62.4-152.544 170.336 0 130.752 88.16 267.424 257.536 267.424 65.376 0 126.784-15.84 165.408-34.656 17.824-8.928 24.768-19.808 21.792-35.68l-46.56-225.824c-7.904-37.632 16.832-49.536 35.648-49.536 67.36 0 119.84 76.288 119.84 184.224 0 155.488-107.968 250.56-287.232 250.56-214.944 0-361.504-154.496-361.504-348.64 0-180.288 109.952-297.12 324.864-297.12 138.656 0 243.648 41.568 325.856 95.072 15.84 10.88 31.68 5.92 39.616-6.944l12.864-19.808c9.888-17.824 5.952-28.704-8.896-40.608-84.16-60.352-219.872-107.904-368.448-107.904zM394.912 412.969c0-54.496 22.784-84.192 69.344-84.192 33.664 0 67.36 13.888 84.192 35.68 11.872 51.488 34.656 172.32 42.592 213.92-14.848 6.944-34.688 11.904-62.4 11.904-77.28-0.032-133.728-69.376-133.728-177.312z" />
<glyph unicode="&#xe734;" glyph-name="support" d="M494.88 379.177c-16.576-40.8-44.672-65.024-75.904-65.024-31.104 0-59.136 24.096-75.744 64.672-75.552-16.512-81.12-55.456-81.152-55.84l0.032-53.312c-0.064-23.296 6.496-32.384 9.312-35.232 2.688-2.688 4.704-2.752 4.928-2.752h286.624c0.224 0 2.24 0.064 4.928 2.784 2.848 2.848 9.376 11.904 9.312 35.168v54.048c-0.832 4.16-9.952 40.16-82.336 55.488zM420.096 349.545c30.688 0 55.552 49.664 55.552 110.944s-24.864 110.944-55.552 110.944c-30.688 0-55.552-49.664-55.552-110.944-0.032-61.28 24.864-110.944 55.552-110.944zM626.944 694.761c-30.688 0-55.552-49.664-55.552-110.944s24.864-110.944 55.552-110.944c30.688 0 55.552 49.664 55.552 110.944 0.032 61.28-24.864 110.944-55.552 110.944zM512 854.857c-229.728 0-416-186.24-416-416s186.272-416 416-416c229.792 0 416 186.24 416 416s-186.208 416-416 416zM593.312 209.129c-8.576-8.576-19.328-13.344-30.368-13.344h-286.592c-11.008 0-21.76 4.736-30.368 13.344-9.088 9.12-19.904 27.040-19.808 60.672v54.432c0.128 3.008 4.384 65.888 106.688 89.152-3.136 15.296-4.736 31.232-4.736 47.456 0 82.24 39.904 146.656 90.816 146.656 50.944 0 90.816-64.416 90.816-146.656 0-16.192-1.568-32.096-4.704-47.328 103.328-23.072 107.84-85.664 108-88.352l0.032-55.456c0.128-33.568-10.688-51.456-19.776-60.576zM800.192 332.457c-8.544-8.576-19.328-13.344-30.336-13.344h-144.768v17.984c-0.064 0.864-0.608 7.968-4.704 17.92h149.472c0.224 0 2.208 0.064 4.928 2.784 2.816 2.816 9.376 11.904 9.312 35.168v54.048c-0.832 4.16-9.92 40.16-82.336 55.488-16.576-40.8-44.704-64.992-75.904-64.992-31.104 0-59.168 24.096-75.744 64.672-11.328-2.464-20.896-5.504-29.312-8.768-1.056 12.64-3.008 24.768-5.888 36.096 7.616 2.624 15.712 5.12 24.832 7.168-3.136 15.296-4.736 31.232-4.736 47.456 0 82.24 39.904 146.656 90.816 146.656s90.816-64.416 90.816-146.656c0-16.192-1.568-32.096-4.704-47.328 103.328-23.072 107.84-85.664 108-88.352l0.032-55.456c0.128-33.504-10.688-51.424-19.776-60.544z" />
<glyph unicode="&#xe735;" glyph-name="tv-rating-c" d="M794.432 600.073c5.28-13.696 10.848-26.272 14.912-39.296 2.528-8.192 6.112-10.176 14.624-9.216 24.928 2.816 49.984 4.416 74.976 6.464 2.336 0.192 4.704 0.032 8.512 0.032-11.072-36.608-21.92-72.416-33.056-109.184 17.28-5.888 34.592-11.744 53.568-18.208-15.808-13.952-30.464-26.912-45.12-39.84-33.184-29.248-66.464-58.368-99.392-87.936-3.232-2.912-5.824-8.416-5.856-12.736-0.352-46.656-0.128-93.312-0.064-139.968 0.032-18.144 0-36.32 0-54.784-227.264 0-454.144 0-681.6 0 0 184.512 0 368.608 0 553.856 124.16 0 248.064 0 373.152 0-1.344 16.48-2.592 31.712-4 48.64 16.64-13.216 31.968-25.408 48.48-38.496 23.744 40.736 47.168 80.992 71.648 122.976 18.784-41.504 36.896-81.504 55.296-122.176 29.472 12.512 58.4 24.768 88.864 37.696-10.816-59.808-21.312-118.016-32.32-178.976 33.536 27.904 64.864 54.048 97.376 81.152zM846.464 518.569c-19.712 0-38.24 0.32-56.736-0.192-6.432-0.192-9.6 2.144-12.064 7.68-3.68 8.256-8.032 16.256-12.448 25.056-30.24-26.528-59.52-52.224-90.24-79.168 3.072 54.528 5.984 107.008 8.992 160.672-14.112-4.736-26.912-8.672-39.424-13.344-6.752-2.528-10.24-1.888-13.632 5.408-9.792 21.088-20.608 41.696-31.040 62.464-4.256 8.48-8.512 16.96-13.472 26.816-21.984-38.496-43.232-75.68-64.928-113.696-16.416 15.2-32.224 29.824-49.472 45.792 0-16.448 0-30.656 0-46.24-108.384 0-216.128 0-323.68 0 0-152.768 0-304.224 0-455.488 189.728 0 378.624 0 568.16 0 0 3.904 0 7.168 0 10.432 0 45.76 0.128 91.52-0.16 137.312-0.032 6.592 1.76 11.008 6.944 15.232 36.608 29.856 72.96 59.968 109.408 90.016 8.576 7.072 17.056 14.304 26.72 22.432-12.352 3.424-22.848 6.336-33.504 9.312 6.944 30.144 13.664 59.36 20.576 89.504zM565.792 447.241c-18.144 16.416-37.152 26.592-58.912 30.848-63.712 12.48-123.968-16.896-133.664-94.56-2.208-17.728-2.4-35.2 3.296-52.224 12.992-38.816 41.888-57.76 80.832-64.032 39.776-6.4 74.784 5.216 107.552 28.736 0.256-2.592 0.672-4.768 0.672-6.944 0.064-19.136-0.192-38.272 0.16-57.408 0.096-5.568-1.824-8.384-6.624-11.040-47.104-25.984-96.416-25.536-145.824-10.048-56.032 17.568-95.104 54.112-110.464 112.064-20.512 77.28 18.816 193.696 136 213.952 41.12 7.104 81.376 6.432 119.488-13.856 5.472-2.912 7.808-5.856 7.68-12.224-0.48-20.288-0.192-40.576-0.192-63.264z" />
<glyph unicode="&#xe736;" glyph-name="tv-rating-c8" d="M96 95.401c0 184.544 0 368.64 0 553.888 124.288 0 248.192 0 373.184 0-1.376 16.288-2.624 31.36-4.064 48.48 16.64-13.152 32.064-25.376 48.544-38.4 23.712 40.736 47.168 80.992 71.616 122.944 18.816-41.6 36.928-81.6 55.296-122.176 29.536 12.512 58.464 24.768 88.864 37.664-10.816-59.84-21.312-118.016-32.32-178.944 33.568 28 64.928 54.144 97.344 81.184 5.408-14.176 10.88-27.52 15.52-41.12 2.24-6.56 5.28-8.32 12.352-7.584 25.248 2.72 50.56 4.512 75.872 6.592 2.624 0.224 5.312 0.032 9.28 0.032-11.104-36.64-21.92-72.448-33.056-109.152 17.344-5.888 34.656-11.776 53.6-18.208-15.872-13.984-30.56-26.944-45.248-39.904-33.184-29.248-66.464-58.4-99.36-87.968-3.232-2.912-5.728-8.416-5.76-12.768-0.352-46.656-0.128-93.312-0.064-139.968 0.032-18.144 0-36.32 0-54.592-227.328 0-454.208 0-681.6 0zM148.096 144.329c190.016 0 378.912 0 568.448 0 0 3.904 0 7.168 0 10.4 0 46.048 0.128 92.128-0.16 138.176-0.032 6.4 2.176 10.432 6.944 14.336 36.544 29.888 72.96 60 109.376 90.048 8.576 7.104 17.056 14.304 26.752 22.432-12.32 3.424-22.816 6.336-33.504 9.312 6.912 30.144 13.632 59.36 20.576 89.472-20 0-38.784 0.192-57.6-0.128-5.536-0.096-8.544 1.568-10.784 6.784-3.68 8.576-8.288 16.8-12.864 25.856-30.208-26.496-59.488-52.192-90.208-79.136 3.040 54.496 5.984 107.008 8.992 160.64-14.080-4.736-26.88-8.672-39.424-13.344-6.72-2.496-10.24-1.984-13.632 5.376-9.76 21.088-20.608 41.696-31.040 62.464-4.256 8.48-8.512 16.96-13.472 26.816-21.984-38.496-43.2-75.68-64.928-113.696-16.416 15.2-32.224 29.824-49.44 45.792 0-16.416 0-30.656 0-46.176-108.384 0-216.128 0-324 0-0.032-152.512-0.032-303.744-0.032-455.424zM525.376 355.529c-9.216 6.496-20.448 11.744-28.096 20.224-24.032 26.624-18.56 74.112 9.92 97.184 36.416 29.504 111.072 28.992 148.32 0.448 33.6-25.76 38.912-98.784-16.32-114.976-1.024-0.288-1.856-1.248-3.36-2.304 31.104-7.904 50.688-26.528 55.232-57.952 7.552-51.936-16-87.2-67.040-99.68-34.624-8.48-69.376-7.776-102.944 5.824-58.112 23.552-59.104 88-39.296 120.864 10.272 16.928 26.176 26.144 43.584 30.368zM541.984 290.793c-0.128-24.256 15.2-39.456 39.712-39.424 24.416 0.032 39.584 14.784 39.68 38.528 0.096 23.776-14.4 38.24-38.4 38.368-26.272 0.16-40.864-13.184-40.992-37.472zM581.44 380.361c21.664 0 34.592 12.448 34.528 33.216-0.064 20.576-13.408 33.152-34.944 32.96-20.8-0.192-33.696-12.992-33.632-33.344 0.096-20.384 12.992-32.832 34.048-32.832zM450.464 352.713c0-25.728 0.192-50.208-0.288-74.688-0.064-2.528-3.488-5.824-6.144-7.392-41.472-23.872-85.6-24.416-130.080-12-56.224 15.68-95.36 50.24-111.456 107.968-19.392 69.664 16.224 184.192 130.976 202.464 38.336 6.112 75.456 4.8 110.656-13.92 4.96-2.624 6.752-5.312 6.688-10.848-0.288-24.224-0.128-48.448-0.128-73.472-7.968 5.472-14.912 11.424-22.816 15.552-37.184 19.456-74.656 22.88-110.88-1.824-29.76-20.288-45.312-63.392-36.672-97.568 8.096-32 40.768-58.304 77.664-62.496 30.368-3.456 57.536 4.704 92.48 28.224z" />
<glyph unicode="&#xe737;" glyph-name="tv-rating-g" d="M96 95.401c0 184.544 0 368.64 0 553.856 124.256 0 248.16 0 373.152 0-1.344 16.448-2.592 31.68-3.968 48.576 16.672-13.248 32.032-25.44 48.48-38.496 23.744 40.768 47.2 81.024 71.648 122.976 18.816-41.568 36.928-81.568 55.296-122.176 29.536 12.512 58.432 24.768 88.864 37.664-10.816-59.84-21.312-118.016-32.32-178.944 33.568 28 64.896 54.112 97.344 81.184 5.408-14.176 10.848-27.488 15.52-41.088 2.24-6.496 5.216-8.384 12.32-7.616 25.248 2.72 50.56 4.512 75.872 6.592 2.624 0.224 5.312 0.032 9.312 0.032-11.072-36.608-21.92-72.416-33.024-109.152 17.312-5.888 34.624-11.776 53.6-18.208-15.84-13.984-30.528-26.944-45.216-39.904-33.184-29.248-66.464-58.4-99.36-87.936-3.232-2.912-5.76-8.416-5.792-12.736-0.352-46.656-0.128-93.312-0.064-139.968 0.032-18.144 0-36.32 0-54.624-227.392-0.032-454.272-0.032-681.664-0.032zM716.512 144.201c0 4.064 0 7.328 0 10.56 0 45.76 0.192 91.52-0.192 137.28-0.064 7.136 2.464 11.488 7.712 15.776 43.232 35.424 86.304 71.040 129.376 106.656 1.664 1.376 3.008 3.136 5.184 5.44-11.584 3.232-22.080 6.144-32.736 9.088 6.944 30.144 13.664 59.36 20.576 89.472-19.456 0-37.696 0.448-55.872-0.224-7.264-0.288-10.688 2.336-13.344 8.544-3.456 8.032-7.744 15.712-12.032 24.224-30.24-26.56-59.552-52.224-90.208-79.168 3.072 54.528 6.016 107.008 8.992 160.64-14.432-4.8-27.52-8.8-40.32-13.568-6.24-2.336-9.28-1.472-12.288 4.928-8.864 18.88-18.56 37.376-27.904 56.032-5.44 10.88-10.88 21.76-17.024 34.016-22.016-38.528-43.232-75.712-64.928-113.728-16.448 15.232-32.256 29.856-49.504 45.824 0-16.48 0-30.72 0-46.272-108.384 0-216.096 0-323.936 0 0-152.576 0-303.776 0-455.552 189.44 0.032 378.304 0.032 568.448 0.032zM442.4 330.057c0 23.872 0 46.752 0 70.336 60.16 0 120.128 0 180.64 0 0-14.72 0.736-29.28-0.16-43.744-1.856-29.536-9.184-57.728-24.384-83.392-18.72-31.616-45.76-53.568-80.608-64.768-44.032-14.144-89.152-15.808-133.056-1.408-65.568 21.504-103.136 69.088-115.168 136.128-8.96 49.984 0.128 97.056 31.328 138.272 33.248 43.904 78.336 66.048 132.832 69.408 42.752 2.656 83.264-4.672 119.52-29.152 18.016-12.192 35.968-30.528 46.752-48.288-26.528-12.704-52.928-25.344-79.584-38.112-12.288 16-26.304 29.024-45.408 34.464-50.784 14.432-102.528-7.648-113.888-70.272-4.192-23.104-3.776-46.4 2.88-69.216 12.8-43.872 49.408-67.904 94.912-62.528 24.896 2.944 47.424 10.848 62.528 32 6.016 8.416 9.248 18.816 14.72 30.336-18.4 0-33.568 0-48.736 0-14.912-0.064-29.792-0.064-45.12-0.064z" />
<glyph unicode="&#xe738;" glyph-name="tv-rating-pg" d="M469.088 649.097c-1.408 16.608-2.688 31.712-4.096 48.672 16.64-13.152 32.128-25.408 48.576-38.432 23.776 40.832 47.232 81.088 71.616 122.976 18.88-41.696 36.992-81.728 55.296-122.208 29.504 12.544 58.272 24.736 88.864 37.728-10.784-59.776-21.28-118.016-31.808-176.256 0.608-0.288 1.216-0.544 1.824-0.832 31.36 26.144 62.72 52.288 94.976 79.2 6.464-16.736 12.64-32.704 18.976-49.088 31.168 2.496 62.016 4.992 94.304 7.584-11.296-37.248-22.144-73.12-33.248-109.76 17.504-5.952 34.816-11.84 53.632-18.24-15.936-14.048-30.688-27.040-45.408-40.032-33.184-29.28-66.464-58.4-99.36-88-3.2-2.88-5.6-8.448-5.632-12.8-0.32-46.656-0.096-93.344-0.064-140 0.032-17.888 0-35.776 0-54.272-226.976 0-453.888 0-681.536 0 0 184.224 0 368.544 0 553.76 124 0 247.712 0 373.088 0zM846.464 518.473c-20.352 0-39.2 0.192-58.016-0.128-5.248-0.096-8 1.568-10.144 6.336-3.872 8.64-8.416 16.96-13.152 26.304-30.048-26.336-59.52-52.16-90.272-79.104 3.072 54.528 6.016 106.944 9.024 160.544-14.496-4.736-28.16-8.8-41.504-13.792-5.984-2.24-8.256-0.512-10.816 4.704-13.376 27.328-27.136 54.464-40.8 81.632-1.28 2.56-2.688 5.088-4.608 8.736-21.92-38.4-43.168-75.616-64.864-113.568-16.48 15.296-32.128 29.856-49.344 45.824 0-16.32 0-30.688 0-46.048-108.608 0-216.16 0-324.064 0 0-152.512 0-304 0-455.904 189.568 0 378.496 0 568.48 0 0 3.648 0 6.848 0 10.048 0 46.368-0.16 92.736 0.256 139.136 0.032 4.352 2.4 10.016 5.664 12.768 28.512 24.128 57.504 47.744 86.304 71.52 16.544 13.664 33.056 27.392 50.784 42.080-12.224 3.456-22.912 6.464-33.632 9.472 7.040 30.144 13.728 59.136 20.704 89.44zM682.336 414.409c-18.848-8.512-37.248-16.8-55.648-25.12-0.544-0.256-1.184-0.32-1.664-0.672-9.248-6.976-15.392-3.584-23.072 4.16-23.808 23.968-53.312 27.136-83.84 17.088-29.792-9.792-43.648-33.312-47.968-63.424-2.656-18.4-1.6-36.48 4.608-53.92 9.216-25.92 27.168-42.592 54.688-47.232 27.2-4.608 53.088-1.408 75.392 16.544 10.336 8.32 16.832 19.040 18.432 33.696-27.104 0-53.536 0-80.416 0 0 19.808 0 38.528 0 58.208 3.232 0.16 6.4 0.48 9.6 0.48 46.976 0.032 93.92-0.192 140.896 0.224 8.672 0.096 11.232-2.912 10.208-10.816-2.656-20.64-2.752-41.984-8.224-61.856-12.544-45.504-43.328-75.040-88.544-88-40.48-11.616-81.472-11.616-121.792 1.696-64.288 21.216-104.544 88.544-96.384 155.488 7.808 63.904 60.544 117.472 132.96 126.272 41.76 5.056 81.6-0.096 118.144-22.368 16.768-10.176 30.56-23.712 42.624-40.448zM267.392 367.881c0-31.552 0-61.664 0-92.544-25.888 0-51.040 0-76.704 0 0 92.992 0 185.856 0 279.040 1.088 0.288 2.176 0.896 3.264 0.864 45.696-0.768 91.456-0.224 137.056-2.784 57.12-3.168 86.112-48.288 83.104-99.872-1.568-26.944-10.688-50.656-33.28-67.52-17.6-13.152-38.176-16.288-59.232-17.056-17.568-0.64-35.2-0.128-54.208-0.128zM267.744 427.529c16.32 1.76 31.552 2.4 46.336 5.248 14.016 2.688 21.184 13.888 21.312 29.248 0.128 14.784-6.72 26.208-20.352 28.896-15.264 3.040-31.040 3.648-47.328 5.408 0.032-23.68 0.032-44.992 0.032-68.8z" />
<glyph unicode="&#xe739;" glyph-name="tv-rating-14" d="M96 95.433c0 184.96 0 368.8 0 553.792 124.288 0 248.192 0 373.216 0-1.344 16.448-2.592 31.68-4 48.608 16.672-13.248 32-25.408 48.48-38.496 23.744 40.736 47.2 80.992 71.648 122.976 18.784-41.536 36.896-81.536 55.264-122.144 29.504 12.512 58.432 24.768 88.832 37.664-10.816-59.808-21.312-117.984-32.32-178.944 33.536 27.968 64.864 54.080 97.312 81.152 5.312-13.824 10.848-26.816 15.2-40.192 2.4-7.392 5.792-9.184 13.504-8.384 27.584 2.848 55.232 4.736 84.512 7.104-11.264-37.184-22.080-72.992-33.216-109.728 17.312-5.888 34.592-11.776 53.568-18.208-15.84-13.984-30.496-26.944-45.184-39.872-32.736-28.864-65.376-57.792-98.304-86.432-5.504-4.768-7.36-9.76-7.296-16.928 0.576-60.384 0.768-120.8 1.056-181.184 0.032-3.52 0-7.040 0-10.752-227.936-0.032-454.784-0.032-682.272-0.032zM521.568 600.137c-16.48 15.328-32.128 29.856-49.344 45.856 0-16.352 0-30.72 0-46.080-108.576 0-216.096 0-323.936 0 0-152.48 0-303.904 0-455.712 189.504 0 378.368 0 568.256 0 0 3.648 0 6.848 0 10.048 0 46.368-0.16 92.704 0.256 139.072 0.032 4.352 2.432 10.016 5.664 12.768 28.512 24.128 57.472 47.712 86.304 71.488 16.544 13.664 33.024 27.36 50.752 42.048-12.224 3.456-22.912 6.464-33.6 9.472 6.944 30.272 13.632 59.424 20.544 89.408-20.32 0-39.136 0.192-57.952-0.128-5.248-0.096-8 1.6-10.112 6.336-3.872 8.608-8.416 16.928-13.152 26.272-30.048-26.336-59.52-52.16-90.24-79.072 3.072 54.496 6.016 106.912 9.024 160.512-13.376-4.416-26.048-7.808-38.048-12.864-8.832-3.744-12.192-0.864-15.936 6.912-12.64 26.336-25.984 52.32-39.072 78.464-1.28 2.56-2.688 5.056-4.608 8.704-21.824-38.208-42.944-75.2-64.8-113.504zM579.104 219.209c0 23.776 0 47.296 0 72.16-13.312 0-28.352 4.384-37.536-1.056-12.576-7.52-24.768-2.016-37.28-6.304 0-15.712 0-31.68 0-48.224-21.44 0-41.984 0-63.744 0 0 16.096 0 32.32 0 49.408-40.256 0-79.296 0-119.2 0 0 15.744-0.16 30.624 0.16 45.472 0.064 2.432 1.824 4.96 3.2 7.2 38.016 62.464 76.128 124.864 114.080 187.392 2.592 4.288 5.344 6.144 10.528 6.048 17.92-0.352 35.84-0.128 54.944-0.128 0-62.208 0-123.904 0-186.24 11.264 0 21.344 0 32.128 0 0.032-6.624 2.848-9.024 9.312-8.608 10.656 0.64 21.376 0.16 33.216 0.16 0 27.456 0 53.888 0 80.864 15.68 0 30.176 0 45.792 0 0-26.432 0-52.864 0-80.416 25.088 0 49.152 0 73.92 0 0-15.328 0-29.536 0-45.184-24 0-48.288 0-73.376 0 0-24.928 0-48.416 0-72.512-15.648-0.032-30.432-0.032-46.144-0.032zM441.152 345.033c0 19.904 0 39.104 0 59.872-13.184-20.608-25.376-39.68-38.272-59.872 13.792 0 25.6 0 38.272 0zM207.104 482.441c0 15.648 0 29.888 0 44.704 31.936 0 63.712 0 96.096 0 0-96.384 0-192.704 0-289.6-21.024 0-41.792 0-63.744 0 0 81.44 0 162.784 0 244.896-11.2 0-21.248 0-32.352 0z" />
<glyph unicode="&#xe73a;" glyph-name="tv-rating-18" d="M729.408 697.833c-10.816-59.808-21.312-118.016-32.32-178.944 33.536 27.968 64.864 54.112 97.312 81.152 5.312-13.824 10.848-26.816 15.2-40.192 2.4-7.392 5.792-9.184 13.504-8.384 27.584 2.848 55.232 4.736 84.512 7.104-11.264-37.184-22.080-72.992-33.216-109.76 17.312-5.888 34.624-11.776 53.6-18.208-15.84-13.984-30.496-26.944-45.184-39.872-33.184-29.248-66.464-58.4-99.36-87.936-3.232-2.912-5.76-8.416-5.792-12.736-0.352-46.656-0.128-93.312-0.064-139.968 0.032-18.144 0-36.32 0-54.688-227.264 0-454.176 0-681.6 0 0 184.544 0 368.608 0 553.856 124.224 0 248.128 0 373.152 0-1.344 16.448-2.592 31.68-4 48.608 16.672-13.248 32-25.44 48.48-38.496 23.744 40.736 47.2 80.992 71.648 122.976 18.784-41.536 36.896-81.536 55.296-122.176 29.504 12.512 58.4 24.768 88.832 37.664zM148.096 144.329c190.048 0 378.944 0 568.448 0 0 3.904 0 7.168 0 10.432 0 45.76 0.192 91.52-0.192 137.28-0.064 7.136 2.432 11.488 7.68 15.776 43.232 35.424 86.304 71.040 129.376 106.656 1.664 1.376 3.040 3.136 5.248 5.472-11.584 3.232-22.080 6.144-32.736 9.12 6.944 30.144 13.632 59.36 20.576 89.472-19.712 0-38.24 0.352-56.736-0.192-6.432-0.192-9.6 2.144-12.064 7.68-3.68 8.256-8.032 16.224-12.448 25.056-30.24-26.528-59.52-52.224-90.24-79.168 3.072 54.528 6.016 107.008 8.992 160.64-14.4-4.8-27.488-8.8-40.32-13.568-6.208-2.336-9.248-1.536-12.288 4.896-10.080 21.28-20.928 42.208-31.488 63.264-4.256 8.48-8.512 16.96-13.44 26.816-21.984-38.496-43.232-75.68-64.928-113.696-16.416 15.2-32.224 29.856-49.472 45.824 0-16.448 0-30.688 0-46.24-108.384 0-216.128 0-323.968 0 0-152.64 0-303.84 0-455.52zM478.464 395.785c32.768-7.776 50.848-27.36 57.152-58.72 14.016 0 27.936 0 43.040 0 0 26.656 0 53.088 0 80.16 15.904 0 30.624 0 46.144 0 0-26.56 0-52.768 0-80.128 24.768 0 48.8 0 73.664 0 0-15.552 0-29.952 0-45.504-24.192 0-48.256 0-73.152 0 0-24.608 0-48.128 0-72.288-15.616 0-30.4 0-46.112 0 0 23.52 0 47.040 0 72.032-15.36 0-29.888 0.096-44.384-0.16-1.408-0.032-3.392-2.24-4.096-3.872-14.080-32.64-41.632-46.624-74.304-51.84-30.688-4.896-61.376-4.032-90.784 8.064-47.296 19.424-66.432 76.384-40.32 120.544 10.176 17.216 25.984 26.688 45.696 31.36-1.12 0.992-1.792 1.984-2.688 2.336-42.368 16.864-56.064 64.064-29.312 101.728 13.664 19.2 33.504 28.032 55.936 32.16 26.016 4.768 51.808 4.064 77.024-4.128 39.968-12.992 60.448-49.44 50.432-89.44-4.704-18.752-16.832-31.136-34.56-38.336-2.368-1.024-4.8-2.048-9.376-3.968zM385.792 329.481c0.032-23.552 15.488-38.592 39.68-38.592 24.736-0.032 39.808 14.912 39.744 39.36-0.064 23.84-14.752 37.6-40.128 37.568-24.992-0.096-39.328-14.048-39.296-38.336zM459.808 453.065c-0.064 20.576-13.376 33.152-34.912 32.992-20.8-0.192-33.728-12.96-33.632-33.312 0.064-20.384 12.96-32.832 33.984-32.832 21.664-0.032 34.624 12.384 34.56 33.152zM303.168 237.353c-21.6 0-42.144 0-63.872 0 0 81.728 0 163.072 0 245.184-11.2 0-21.248 0-32.032 0 0 15.2 0 29.664 0 44.704 31.744 0 63.52 0 95.872 0 0.032-96.544 0.032-192.864 0.032-289.888z" />
<glyph unicode="&#xe73b;" glyph-name="m-rating-g" d="M512 854.857c-229.76 0-416-186.24-416-416s186.24-416 416-416c229.76 0 416 186.24 416 416s-186.24 416-416 416zM732.896 267.753c-19.968-19.328-48.928-36.384-86.848-51.072-37.92-14.72-76.32-22.080-115.2-22.080-49.408 0-92.48 10.368-129.216 31.104-36.704 20.736-64.32 50.368-82.816 88.96-18.464 38.56-27.712 80.512-27.712 125.824 0 49.184 10.304 92.928 30.944 131.168 20.608 38.24 50.784 67.552 90.528 87.968 30.304 15.68 68 23.52 113.12 23.52 58.656 0 104.48-12.288 137.44-36.896s54.176-58.592 63.616-101.984l-94.752-17.728c-6.656 23.2-19.168 41.504-37.536 54.944s-41.312 20.128-68.8 20.128c-41.696 0-74.816-13.216-99.424-39.648s-36.896-65.632-36.896-117.632c0-56.064 12.448-98.112 37.408-126.144 24.928-28.032 57.568-42.048 97.952-42.048 20 0 40.032 3.904 60.096 11.744s37.312 17.344 51.712 28.512v59.936h-109.248v79.584h205.6v-188.16z" />
<glyph unicode="&#xe73c;" glyph-name="m-rating-pg" d="M350.336 562.857c-9.216 1.76-27.744 2.624-55.584 2.624h-37.344v-108.608h42.272c30.464 0 50.816 2.016 61.088 6.016s18.304 10.272 24.16 18.784c5.824 8.544 8.736 18.432 8.736 29.76 0 13.92-4.096 25.408-12.256 34.464-8.192 9.024-18.528 14.688-31.072 16.96zM817.952 854.857h-611.904c-58.048 0-105.088-47.040-105.088-105.088v-621.824c0-58.048 47.040-105.088 105.088-105.088h611.936c58.048 0 105.088 47.040 105.088 105.088v621.824c-0.032 58.048-47.072 105.088-105.12 105.088zM460.48 453.225c-8.512-16-19.328-28.576-32.48-37.728s-26.496-15.2-40.064-18.144c-18.432-3.648-45.184-5.472-80.16-5.472h-50.368v-144.352h-77.28v382.688h124c47.008 0 77.632-1.92 91.904-5.76 21.92-5.76 40.288-18.24 55.072-37.44s22.176-44.064 22.176-74.528c0-23.52-4.256-43.264-12.8-59.264zM843.872 300.233c-16.16-15.648-39.648-29.472-70.336-41.376s-61.824-17.888-93.312-17.888c-40.032 0-74.944 8.416-104.704 25.184s-52.096 40.8-67.072 72.064c-14.944 31.232-22.464 65.216-22.464 101.952 0 39.84 8.352 75.264 25.056 106.24s41.152 54.72 73.344 71.264c24.544 12.704 55.072 19.072 91.648 19.072 47.52 0 84.608-9.984 111.328-29.888s43.904-47.456 51.552-82.592l-76.736-14.368c-5.408 18.784-15.552 33.632-30.432 44.512s-33.44 16.32-55.712 16.32c-33.76 0-60.608-10.688-80.544-32.096s-29.888-53.152-29.888-95.296c0-45.408 10.080-79.488 30.272-102.208s46.624-34.080 79.36-34.080c16.192 0 32.416 3.168 48.704 9.536 16.256 6.336 30.208 14.048 41.888 23.104v48.544h-88.48v64.48h166.528v-152.48z" />
</font>
</defs>
</svg>
